<mxfile host="app.diagrams.net" modified="2023-03-30T07:17:40.915Z" agent="Mozilla/5.0 (Windows NT 10.0; Win64; x64) AppleWebKit/537.36 (KHTML, like Gecko) Chrome/111.0.0.0 Safari/537.36" etag="aIMTGzX7-omY6CZTDCD-" version="21.1.1" type="device">
  <diagram name="Страница 1" id="aJA938l17Qh6kMEJ-4gA">
    <mxGraphModel dx="1591" dy="1111" grid="0" gridSize="10" guides="1" tooltips="1" connect="1" arrows="1" fold="1" page="0" pageScale="1" pageWidth="827" pageHeight="1169" math="0" shadow="0">
      <root>
        <mxCell id="0" />
        <mxCell id="1" parent="0" />
        <mxCell id="YlbDnyNl1JNBiLBAhTAw-1" value="СОЗДАНИЕ" style="swimlane;fontStyle=1;align=center;verticalAlign=top;childLayout=stackLayout;horizontal=1;startSize=26;horizontalStack=0;resizeParent=1;resizeParentMax=0;resizeLast=0;collapsible=1;marginBottom=0;whiteSpace=wrap;html=1;" parent="1" vertex="1">
          <mxGeometry x="600" y="320" width="160" height="190" as="geometry">
            <mxRectangle x="80" y="160" width="110" height="30" as="alternateBounds" />
          </mxGeometry>
        </mxCell>
        <mxCell id="YlbDnyNl1JNBiLBAhTAw-2" value="ИД_СОЗДАНИЯ" style="text;strokeColor=none;fillColor=none;align=left;verticalAlign=top;spacingLeft=4;spacingRight=4;overflow=hidden;rotatable=0;points=[[0,0.5],[1,0.5]];portConstraint=eastwest;whiteSpace=wrap;html=1;" parent="YlbDnyNl1JNBiLBAhTAw-1" vertex="1">
          <mxGeometry y="26" width="160" height="26" as="geometry" />
        </mxCell>
        <mxCell id="YlbDnyNl1JNBiLBAhTAw-3" value="" style="line;strokeWidth=1;fillColor=none;align=left;verticalAlign=middle;spacingTop=-1;spacingLeft=3;spacingRight=3;rotatable=0;labelPosition=right;points=[];portConstraint=eastwest;strokeColor=inherit;" parent="YlbDnyNl1JNBiLBAhTAw-1" vertex="1">
          <mxGeometry y="52" width="160" height="8" as="geometry" />
        </mxCell>
        <mxCell id="YlbDnyNl1JNBiLBAhTAw-4" value="НАЗВАНИЕ_СОЗДАНИЯ&lt;br&gt;ИД_ВИДА&lt;br&gt;ИД_ЛОКАЦИИ&lt;br&gt;ИД_ЖИЛИЩЕ&lt;br&gt;ИД_ПЕТИКАНТРОПА&lt;br&gt;СОСТОЯНИЕ" style="text;strokeColor=none;fillColor=none;align=left;verticalAlign=top;spacingLeft=4;spacingRight=4;overflow=hidden;rotatable=0;points=[[0,0.5],[1,0.5]];portConstraint=eastwest;whiteSpace=wrap;html=1;" parent="YlbDnyNl1JNBiLBAhTAw-1" vertex="1">
          <mxGeometry y="60" width="160" height="130" as="geometry" />
        </mxCell>
        <mxCell id="YlbDnyNl1JNBiLBAhTAw-5" value="Инфологическая модель" style="text;html=1;strokeColor=none;fillColor=none;align=center;verticalAlign=middle;whiteSpace=wrap;rounded=0;" parent="1" vertex="1">
          <mxGeometry x="40" y="90" width="200" height="30" as="geometry" />
        </mxCell>
        <mxCell id="YlbDnyNl1JNBiLBAhTAw-6" value="ЛОКАЦИЯ" style="swimlane;fontStyle=1;align=center;verticalAlign=top;childLayout=stackLayout;horizontal=1;startSize=26;horizontalStack=0;resizeParent=1;resizeParentMax=0;resizeLast=0;collapsible=1;marginBottom=0;whiteSpace=wrap;html=1;" parent="1" vertex="1">
          <mxGeometry x="320" y="150" width="160" height="170" as="geometry">
            <mxRectangle x="80" y="160" width="110" height="30" as="alternateBounds" />
          </mxGeometry>
        </mxCell>
        <mxCell id="YlbDnyNl1JNBiLBAhTAw-7" value="ИД_ЛОКАЦИЯ" style="text;strokeColor=none;fillColor=none;align=left;verticalAlign=top;spacingLeft=4;spacingRight=4;overflow=hidden;rotatable=0;points=[[0,0.5],[1,0.5]];portConstraint=eastwest;whiteSpace=wrap;html=1;" parent="YlbDnyNl1JNBiLBAhTAw-6" vertex="1">
          <mxGeometry y="26" width="160" height="26" as="geometry" />
        </mxCell>
        <mxCell id="YlbDnyNl1JNBiLBAhTAw-8" value="" style="line;strokeWidth=1;fillColor=none;align=left;verticalAlign=middle;spacingTop=-1;spacingLeft=3;spacingRight=3;rotatable=0;labelPosition=right;points=[];portConstraint=eastwest;strokeColor=inherit;" parent="YlbDnyNl1JNBiLBAhTAw-6" vertex="1">
          <mxGeometry y="52" width="160" height="8" as="geometry" />
        </mxCell>
        <mxCell id="YlbDnyNl1JNBiLBAhTAw-9" value="НАЗВАНИЕ_ЛОКАЦИИ&lt;br&gt;ИД_ТИПА&lt;br&gt;ИД_РАЗМЕРА&lt;br&gt;ИД_МЕСТНОСТИ&lt;br&gt;МАТЕРИК&lt;br&gt;КООРДИНАТА_X&lt;br&gt;КООРДИНАТА_Y" style="text;strokeColor=none;fillColor=none;align=left;verticalAlign=top;spacingLeft=4;spacingRight=4;overflow=hidden;rotatable=0;points=[[0,0.5],[1,0.5]];portConstraint=eastwest;whiteSpace=wrap;html=1;" parent="YlbDnyNl1JNBiLBAhTAw-6" vertex="1">
          <mxGeometry y="60" width="160" height="110" as="geometry" />
        </mxCell>
        <mxCell id="YlbDnyNl1JNBiLBAhTAw-10" value="ВИД" style="swimlane;fontStyle=1;align=center;verticalAlign=top;childLayout=stackLayout;horizontal=1;startSize=26;horizontalStack=0;resizeParent=1;resizeParentMax=0;resizeLast=0;collapsible=1;marginBottom=0;whiteSpace=wrap;html=1;" parent="1" vertex="1">
          <mxGeometry x="320" y="360" width="160" height="90" as="geometry">
            <mxRectangle x="80" y="160" width="110" height="30" as="alternateBounds" />
          </mxGeometry>
        </mxCell>
        <mxCell id="YlbDnyNl1JNBiLBAhTAw-11" value="ИД_ВИДА" style="text;strokeColor=none;fillColor=none;align=left;verticalAlign=top;spacingLeft=4;spacingRight=4;overflow=hidden;rotatable=0;points=[[0,0.5],[1,0.5]];portConstraint=eastwest;whiteSpace=wrap;html=1;" parent="YlbDnyNl1JNBiLBAhTAw-10" vertex="1">
          <mxGeometry y="26" width="160" height="26" as="geometry" />
        </mxCell>
        <mxCell id="YlbDnyNl1JNBiLBAhTAw-12" value="" style="line;strokeWidth=1;fillColor=none;align=left;verticalAlign=middle;spacingTop=-1;spacingLeft=3;spacingRight=3;rotatable=0;labelPosition=right;points=[];portConstraint=eastwest;strokeColor=inherit;" parent="YlbDnyNl1JNBiLBAhTAw-10" vertex="1">
          <mxGeometry y="52" width="160" height="8" as="geometry" />
        </mxCell>
        <mxCell id="YlbDnyNl1JNBiLBAhTAw-13" value="НАЗВАНИЕ_ВИДА" style="text;strokeColor=none;fillColor=none;align=left;verticalAlign=top;spacingLeft=4;spacingRight=4;overflow=hidden;rotatable=0;points=[[0,0.5],[1,0.5]];portConstraint=eastwest;whiteSpace=wrap;html=1;" parent="YlbDnyNl1JNBiLBAhTAw-10" vertex="1">
          <mxGeometry y="60" width="160" height="30" as="geometry" />
        </mxCell>
        <mxCell id="YlbDnyNl1JNBiLBAhTAw-14" value="ТИП" style="swimlane;fontStyle=1;align=center;verticalAlign=top;childLayout=stackLayout;horizontal=1;startSize=26;horizontalStack=0;resizeParent=1;resizeParentMax=0;resizeLast=0;collapsible=1;marginBottom=0;whiteSpace=wrap;html=1;" parent="1" vertex="1">
          <mxGeometry x="40" y="150" width="160" height="90" as="geometry">
            <mxRectangle x="80" y="160" width="110" height="30" as="alternateBounds" />
          </mxGeometry>
        </mxCell>
        <mxCell id="YlbDnyNl1JNBiLBAhTAw-15" value="ИД_ТИПА" style="text;strokeColor=none;fillColor=none;align=left;verticalAlign=top;spacingLeft=4;spacingRight=4;overflow=hidden;rotatable=0;points=[[0,0.5],[1,0.5]];portConstraint=eastwest;whiteSpace=wrap;html=1;" parent="YlbDnyNl1JNBiLBAhTAw-14" vertex="1">
          <mxGeometry y="26" width="160" height="26" as="geometry" />
        </mxCell>
        <mxCell id="YlbDnyNl1JNBiLBAhTAw-16" value="" style="line;strokeWidth=1;fillColor=none;align=left;verticalAlign=middle;spacingTop=-1;spacingLeft=3;spacingRight=3;rotatable=0;labelPosition=right;points=[];portConstraint=eastwest;strokeColor=inherit;" parent="YlbDnyNl1JNBiLBAhTAw-14" vertex="1">
          <mxGeometry y="52" width="160" height="8" as="geometry" />
        </mxCell>
        <mxCell id="YlbDnyNl1JNBiLBAhTAw-17" value="НАЗВАНИЕ_ТИПА" style="text;strokeColor=none;fillColor=none;align=left;verticalAlign=top;spacingLeft=4;spacingRight=4;overflow=hidden;rotatable=0;points=[[0,0.5],[1,0.5]];portConstraint=eastwest;whiteSpace=wrap;html=1;" parent="YlbDnyNl1JNBiLBAhTAw-14" vertex="1">
          <mxGeometry y="60" width="160" height="30" as="geometry" />
        </mxCell>
        <mxCell id="YlbDnyNl1JNBiLBAhTAw-18" value="РАЗМЕР" style="swimlane;fontStyle=1;align=center;verticalAlign=top;childLayout=stackLayout;horizontal=1;startSize=26;horizontalStack=0;resizeParent=1;resizeParentMax=0;resizeLast=0;collapsible=1;marginBottom=0;whiteSpace=wrap;html=1;" parent="1" vertex="1">
          <mxGeometry x="40" y="270" width="160" height="90" as="geometry">
            <mxRectangle x="80" y="160" width="110" height="30" as="alternateBounds" />
          </mxGeometry>
        </mxCell>
        <mxCell id="YlbDnyNl1JNBiLBAhTAw-19" value="ИД_РАЗМЕРА" style="text;strokeColor=none;fillColor=none;align=left;verticalAlign=top;spacingLeft=4;spacingRight=4;overflow=hidden;rotatable=0;points=[[0,0.5],[1,0.5]];portConstraint=eastwest;whiteSpace=wrap;html=1;" parent="YlbDnyNl1JNBiLBAhTAw-18" vertex="1">
          <mxGeometry y="26" width="160" height="26" as="geometry" />
        </mxCell>
        <mxCell id="YlbDnyNl1JNBiLBAhTAw-20" value="" style="line;strokeWidth=1;fillColor=none;align=left;verticalAlign=middle;spacingTop=-1;spacingLeft=3;spacingRight=3;rotatable=0;labelPosition=right;points=[];portConstraint=eastwest;strokeColor=inherit;" parent="YlbDnyNl1JNBiLBAhTAw-18" vertex="1">
          <mxGeometry y="52" width="160" height="8" as="geometry" />
        </mxCell>
        <mxCell id="YlbDnyNl1JNBiLBAhTAw-21" value="НАЗВАНИЕ_РАЗМЕРА" style="text;strokeColor=none;fillColor=none;align=left;verticalAlign=top;spacingLeft=4;spacingRight=4;overflow=hidden;rotatable=0;points=[[0,0.5],[1,0.5]];portConstraint=eastwest;whiteSpace=wrap;html=1;" parent="YlbDnyNl1JNBiLBAhTAw-18" vertex="1">
          <mxGeometry y="60" width="160" height="30" as="geometry" />
        </mxCell>
        <mxCell id="YlbDnyNl1JNBiLBAhTAw-22" value="БИОМ" style="swimlane;fontStyle=1;align=center;verticalAlign=top;childLayout=stackLayout;horizontal=1;startSize=26;horizontalStack=0;resizeParent=1;resizeParentMax=0;resizeLast=0;collapsible=1;marginBottom=0;whiteSpace=wrap;html=1;" parent="1" vertex="1">
          <mxGeometry x="40" y="390" width="160" height="130" as="geometry">
            <mxRectangle x="80" y="160" width="110" height="30" as="alternateBounds" />
          </mxGeometry>
        </mxCell>
        <mxCell id="YlbDnyNl1JNBiLBAhTAw-23" value="ИД_БИОМА" style="text;strokeColor=none;fillColor=none;align=left;verticalAlign=top;spacingLeft=4;spacingRight=4;overflow=hidden;rotatable=0;points=[[0,0.5],[1,0.5]];portConstraint=eastwest;whiteSpace=wrap;html=1;" parent="YlbDnyNl1JNBiLBAhTAw-22" vertex="1">
          <mxGeometry y="26" width="160" height="26" as="geometry" />
        </mxCell>
        <mxCell id="YlbDnyNl1JNBiLBAhTAw-24" value="" style="line;strokeWidth=1;fillColor=none;align=left;verticalAlign=middle;spacingTop=-1;spacingLeft=3;spacingRight=3;rotatable=0;labelPosition=right;points=[];portConstraint=eastwest;strokeColor=inherit;" parent="YlbDnyNl1JNBiLBAhTAw-22" vertex="1">
          <mxGeometry y="52" width="160" height="8" as="geometry" />
        </mxCell>
        <mxCell id="YlbDnyNl1JNBiLBAhTAw-25" value="ВОДНЫЙ_БИОМ&lt;br&gt;ГОРНЫЙ_БИОМ&lt;br&gt;ЛЕСНОЙ_БИОМ&lt;br&gt;ПУСТЫННЫЙ_БИОМ" style="text;strokeColor=none;fillColor=none;align=left;verticalAlign=top;spacingLeft=4;spacingRight=4;overflow=hidden;rotatable=0;points=[[0,0.5],[1,0.5]];portConstraint=eastwest;whiteSpace=wrap;html=1;" parent="YlbDnyNl1JNBiLBAhTAw-22" vertex="1">
          <mxGeometry y="60" width="160" height="70" as="geometry" />
        </mxCell>
        <mxCell id="YlbDnyNl1JNBiLBAhTAw-31" value="Даталогическая модель" style="text;html=1;strokeColor=none;fillColor=none;align=center;verticalAlign=middle;whiteSpace=wrap;rounded=0;" parent="1" vertex="1">
          <mxGeometry x="40" y="770" width="200" height="30" as="geometry" />
        </mxCell>
        <mxCell id="YlbDnyNl1JNBiLBAhTAw-60" value="" style="edgeStyle=entityRelationEdgeStyle;fontSize=12;html=1;endArrow=ERzeroToMany;startArrow=ERmandOne;rounded=0;exitX=1;exitY=0.5;exitDx=0;exitDy=0;entryX=0;entryY=0.5;entryDx=0;entryDy=0;" parent="1" source="YlbDnyNl1JNBiLBAhTAw-15" target="YlbDnyNl1JNBiLBAhTAw-7" edge="1">
          <mxGeometry width="100" height="100" relative="1" as="geometry">
            <mxPoint x="360" y="380" as="sourcePoint" />
            <mxPoint x="460" y="280" as="targetPoint" />
          </mxGeometry>
        </mxCell>
        <mxCell id="YlbDnyNl1JNBiLBAhTAw-61" value="" style="edgeStyle=orthogonalEdgeStyle;fontSize=12;html=1;endArrow=ERzeroToMany;startArrow=ERmandOne;rounded=0;exitX=1;exitY=0.5;exitDx=0;exitDy=0;entryX=0.003;entryY=0.275;entryDx=0;entryDy=0;entryPerimeter=0;" parent="1" source="YlbDnyNl1JNBiLBAhTAw-19" target="YlbDnyNl1JNBiLBAhTAw-9" edge="1">
          <mxGeometry width="100" height="100" relative="1" as="geometry">
            <mxPoint x="210" y="199" as="sourcePoint" />
            <mxPoint x="330" y="199" as="targetPoint" />
            <Array as="points">
              <mxPoint x="240" y="309" />
              <mxPoint x="240" y="240" />
            </Array>
          </mxGeometry>
        </mxCell>
        <mxCell id="YlbDnyNl1JNBiLBAhTAw-62" value="" style="edgeStyle=orthogonalEdgeStyle;fontSize=12;html=1;endArrow=ERzeroToMany;startArrow=ERmandOne;rounded=0;exitX=1;exitY=0.5;exitDx=0;exitDy=0;entryX=-0.002;entryY=0.74;entryDx=0;entryDy=0;entryPerimeter=0;" parent="1" source="YlbDnyNl1JNBiLBAhTAw-23" target="YlbDnyNl1JNBiLBAhTAw-9" edge="1">
          <mxGeometry width="100" height="100" relative="1" as="geometry">
            <mxPoint x="210" y="199" as="sourcePoint" />
            <mxPoint x="330" y="199" as="targetPoint" />
            <Array as="points">
              <mxPoint x="280" y="429" />
              <mxPoint x="280" y="291" />
            </Array>
          </mxGeometry>
        </mxCell>
        <mxCell id="YlbDnyNl1JNBiLBAhTAw-64" value="" style="edgeStyle=orthogonalEdgeStyle;fontSize=12;html=1;endArrow=ERzeroToMany;startArrow=ERmandOne;rounded=0;exitX=1;exitY=0.5;exitDx=0;exitDy=0;entryX=1;entryY=0.5;entryDx=0;entryDy=0;" parent="1" source="YlbDnyNl1JNBiLBAhTAw-7" target="YlbDnyNl1JNBiLBAhTAw-4" edge="1">
          <mxGeometry width="100" height="100" relative="1" as="geometry">
            <mxPoint x="500" y="199" as="sourcePoint" />
            <mxPoint x="620" y="199" as="targetPoint" />
            <Array as="points">
              <mxPoint x="790" y="189" />
              <mxPoint x="790" y="445" />
            </Array>
          </mxGeometry>
        </mxCell>
        <mxCell id="YlbDnyNl1JNBiLBAhTAw-65" value="" style="edgeStyle=orthogonalEdgeStyle;fontSize=12;html=1;endArrow=ERzeroToMany;startArrow=ERmandOne;rounded=0;exitX=1;exitY=0.5;exitDx=0;exitDy=0;entryX=0.003;entryY=0.303;entryDx=0;entryDy=0;entryPerimeter=0;" parent="1" source="YlbDnyNl1JNBiLBAhTAw-11" target="YlbDnyNl1JNBiLBAhTAw-4" edge="1">
          <mxGeometry width="100" height="100" relative="1" as="geometry">
            <mxPoint x="420" y="350" as="sourcePoint" />
            <mxPoint x="540" y="350" as="targetPoint" />
          </mxGeometry>
        </mxCell>
        <mxCell id="YlbDnyNl1JNBiLBAhTAw-66" value="" style="edgeStyle=orthogonalEdgeStyle;fontSize=12;html=1;endArrow=ERzeroToMany;startArrow=ERmandOne;rounded=0;exitX=0.5;exitY=0;exitDx=0;exitDy=0;entryX=0;entryY=0.5;entryDx=0;entryDy=0;" parent="1" source="NPJyfYxu5IKuW3XJHxfP-11" target="YlbDnyNl1JNBiLBAhTAw-4" edge="1">
          <mxGeometry width="100" height="100" relative="1" as="geometry">
            <mxPoint x="480" y="519" as="sourcePoint" />
            <mxPoint x="610" y="369" as="targetPoint" />
            <Array as="points">
              <mxPoint x="554" y="519" />
              <mxPoint x="553" y="445" />
            </Array>
          </mxGeometry>
        </mxCell>
        <mxCell id="YlbDnyNl1JNBiLBAhTAw-71" value="location" style="swimlane;fontStyle=1;align=center;verticalAlign=top;childLayout=stackLayout;horizontal=1;startSize=26;horizontalStack=0;resizeParent=1;resizeParentMax=0;resizeLast=0;collapsible=1;marginBottom=0;whiteSpace=wrap;html=1;" parent="1" vertex="1">
          <mxGeometry x="320" y="830" width="160" height="170" as="geometry">
            <mxRectangle x="80" y="160" width="110" height="30" as="alternateBounds" />
          </mxGeometry>
        </mxCell>
        <mxCell id="YlbDnyNl1JNBiLBAhTAw-72" value="id SERIAL" style="text;strokeColor=none;fillColor=none;align=left;verticalAlign=top;spacingLeft=4;spacingRight=4;overflow=hidden;rotatable=0;points=[[0,0.5],[1,0.5]];portConstraint=eastwest;whiteSpace=wrap;html=1;" parent="YlbDnyNl1JNBiLBAhTAw-71" vertex="1">
          <mxGeometry y="26" width="160" height="26" as="geometry" />
        </mxCell>
        <mxCell id="YlbDnyNl1JNBiLBAhTAw-73" value="" style="line;strokeWidth=1;fillColor=none;align=left;verticalAlign=middle;spacingTop=-1;spacingLeft=3;spacingRight=3;rotatable=0;labelPosition=right;points=[];portConstraint=eastwest;strokeColor=inherit;" parent="YlbDnyNl1JNBiLBAhTAw-71" vertex="1">
          <mxGeometry y="52" width="160" height="8" as="geometry" />
        </mxCell>
        <mxCell id="YlbDnyNl1JNBiLBAhTAw-74" value="name VARCHAR&lt;br&gt;type INT&lt;br&gt;size INT&lt;br&gt;biome INT&lt;br&gt;mainland VARCHAR&lt;br&gt;x DECIMAL(1000, 10)&lt;br&gt;y DECIMAL(1000, 10)" style="text;strokeColor=none;fillColor=none;align=left;verticalAlign=top;spacingLeft=4;spacingRight=4;overflow=hidden;rotatable=0;points=[[0,0.5],[1,0.5]];portConstraint=eastwest;whiteSpace=wrap;html=1;" parent="YlbDnyNl1JNBiLBAhTAw-71" vertex="1">
          <mxGeometry y="60" width="160" height="110" as="geometry" />
        </mxCell>
        <mxCell id="YlbDnyNl1JNBiLBAhTAw-75" value="class" style="swimlane;fontStyle=1;align=center;verticalAlign=top;childLayout=stackLayout;horizontal=1;startSize=26;horizontalStack=0;resizeParent=1;resizeParentMax=0;resizeLast=0;collapsible=1;marginBottom=0;whiteSpace=wrap;html=1;" parent="1" vertex="1">
          <mxGeometry x="320" y="1040" width="160" height="90" as="geometry">
            <mxRectangle x="80" y="160" width="110" height="30" as="alternateBounds" />
          </mxGeometry>
        </mxCell>
        <mxCell id="YlbDnyNl1JNBiLBAhTAw-76" value="id SERIAL" style="text;strokeColor=none;fillColor=none;align=left;verticalAlign=top;spacingLeft=4;spacingRight=4;overflow=hidden;rotatable=0;points=[[0,0.5],[1,0.5]];portConstraint=eastwest;whiteSpace=wrap;html=1;" parent="YlbDnyNl1JNBiLBAhTAw-75" vertex="1">
          <mxGeometry y="26" width="160" height="26" as="geometry" />
        </mxCell>
        <mxCell id="YlbDnyNl1JNBiLBAhTAw-77" value="" style="line;strokeWidth=1;fillColor=none;align=left;verticalAlign=middle;spacingTop=-1;spacingLeft=3;spacingRight=3;rotatable=0;labelPosition=right;points=[];portConstraint=eastwest;strokeColor=inherit;" parent="YlbDnyNl1JNBiLBAhTAw-75" vertex="1">
          <mxGeometry y="52" width="160" height="8" as="geometry" />
        </mxCell>
        <mxCell id="YlbDnyNl1JNBiLBAhTAw-78" value="name VARCHAR" style="text;strokeColor=none;fillColor=none;align=left;verticalAlign=top;spacingLeft=4;spacingRight=4;overflow=hidden;rotatable=0;points=[[0,0.5],[1,0.5]];portConstraint=eastwest;whiteSpace=wrap;html=1;" parent="YlbDnyNl1JNBiLBAhTAw-75" vertex="1">
          <mxGeometry y="60" width="160" height="30" as="geometry" />
        </mxCell>
        <mxCell id="YlbDnyNl1JNBiLBAhTAw-79" value="type" style="swimlane;fontStyle=1;align=center;verticalAlign=top;childLayout=stackLayout;horizontal=1;startSize=26;horizontalStack=0;resizeParent=1;resizeParentMax=0;resizeLast=0;collapsible=1;marginBottom=0;whiteSpace=wrap;html=1;" parent="1" vertex="1">
          <mxGeometry x="40" y="830" width="160" height="90" as="geometry">
            <mxRectangle x="80" y="160" width="110" height="30" as="alternateBounds" />
          </mxGeometry>
        </mxCell>
        <mxCell id="YlbDnyNl1JNBiLBAhTAw-80" value="id SERIAL" style="text;strokeColor=none;fillColor=none;align=left;verticalAlign=top;spacingLeft=4;spacingRight=4;overflow=hidden;rotatable=0;points=[[0,0.5],[1,0.5]];portConstraint=eastwest;whiteSpace=wrap;html=1;" parent="YlbDnyNl1JNBiLBAhTAw-79" vertex="1">
          <mxGeometry y="26" width="160" height="26" as="geometry" />
        </mxCell>
        <mxCell id="YlbDnyNl1JNBiLBAhTAw-81" value="" style="line;strokeWidth=1;fillColor=none;align=left;verticalAlign=middle;spacingTop=-1;spacingLeft=3;spacingRight=3;rotatable=0;labelPosition=right;points=[];portConstraint=eastwest;strokeColor=inherit;" parent="YlbDnyNl1JNBiLBAhTAw-79" vertex="1">
          <mxGeometry y="52" width="160" height="8" as="geometry" />
        </mxCell>
        <mxCell id="YlbDnyNl1JNBiLBAhTAw-82" value="name VARCHAR" style="text;strokeColor=none;fillColor=none;align=left;verticalAlign=top;spacingLeft=4;spacingRight=4;overflow=hidden;rotatable=0;points=[[0,0.5],[1,0.5]];portConstraint=eastwest;whiteSpace=wrap;html=1;" parent="YlbDnyNl1JNBiLBAhTAw-79" vertex="1">
          <mxGeometry y="60" width="160" height="30" as="geometry" />
        </mxCell>
        <mxCell id="YlbDnyNl1JNBiLBAhTAw-83" value="size" style="swimlane;fontStyle=1;align=center;verticalAlign=top;childLayout=stackLayout;horizontal=1;startSize=26;horizontalStack=0;resizeParent=1;resizeParentMax=0;resizeLast=0;collapsible=1;marginBottom=0;whiteSpace=wrap;html=1;" parent="1" vertex="1">
          <mxGeometry x="40" y="950" width="160" height="90" as="geometry">
            <mxRectangle x="80" y="160" width="110" height="30" as="alternateBounds" />
          </mxGeometry>
        </mxCell>
        <mxCell id="YlbDnyNl1JNBiLBAhTAw-84" value="id SERIAL" style="text;strokeColor=none;fillColor=none;align=left;verticalAlign=top;spacingLeft=4;spacingRight=4;overflow=hidden;rotatable=0;points=[[0,0.5],[1,0.5]];portConstraint=eastwest;whiteSpace=wrap;html=1;" parent="YlbDnyNl1JNBiLBAhTAw-83" vertex="1">
          <mxGeometry y="26" width="160" height="26" as="geometry" />
        </mxCell>
        <mxCell id="YlbDnyNl1JNBiLBAhTAw-85" value="" style="line;strokeWidth=1;fillColor=none;align=left;verticalAlign=middle;spacingTop=-1;spacingLeft=3;spacingRight=3;rotatable=0;labelPosition=right;points=[];portConstraint=eastwest;strokeColor=inherit;" parent="YlbDnyNl1JNBiLBAhTAw-83" vertex="1">
          <mxGeometry y="52" width="160" height="8" as="geometry" />
        </mxCell>
        <mxCell id="YlbDnyNl1JNBiLBAhTAw-86" value="name VARCHAR" style="text;strokeColor=none;fillColor=none;align=left;verticalAlign=top;spacingLeft=4;spacingRight=4;overflow=hidden;rotatable=0;points=[[0,0.5],[1,0.5]];portConstraint=eastwest;whiteSpace=wrap;html=1;" parent="YlbDnyNl1JNBiLBAhTAw-83" vertex="1">
          <mxGeometry y="60" width="160" height="30" as="geometry" />
        </mxCell>
        <mxCell id="YlbDnyNl1JNBiLBAhTAw-87" value="biome" style="swimlane;fontStyle=1;align=center;verticalAlign=top;childLayout=stackLayout;horizontal=1;startSize=26;horizontalStack=0;resizeParent=1;resizeParentMax=0;resizeLast=0;collapsible=1;marginBottom=0;whiteSpace=wrap;html=1;" parent="1" vertex="1">
          <mxGeometry x="40" y="1070" width="160" height="130" as="geometry">
            <mxRectangle x="80" y="160" width="110" height="30" as="alternateBounds" />
          </mxGeometry>
        </mxCell>
        <mxCell id="YlbDnyNl1JNBiLBAhTAw-88" value="id SERIAL" style="text;strokeColor=none;fillColor=none;align=left;verticalAlign=top;spacingLeft=4;spacingRight=4;overflow=hidden;rotatable=0;points=[[0,0.5],[1,0.5]];portConstraint=eastwest;whiteSpace=wrap;html=1;" parent="YlbDnyNl1JNBiLBAhTAw-87" vertex="1">
          <mxGeometry y="26" width="160" height="26" as="geometry" />
        </mxCell>
        <mxCell id="YlbDnyNl1JNBiLBAhTAw-89" value="" style="line;strokeWidth=1;fillColor=none;align=left;verticalAlign=middle;spacingTop=-1;spacingLeft=3;spacingRight=3;rotatable=0;labelPosition=right;points=[];portConstraint=eastwest;strokeColor=inherit;" parent="YlbDnyNl1JNBiLBAhTAw-87" vertex="1">
          <mxGeometry y="52" width="160" height="8" as="geometry" />
        </mxCell>
        <mxCell id="YlbDnyNl1JNBiLBAhTAw-90" value="water BOOL&lt;br&gt;mountains BOOL&lt;br&gt;forest BOOL&lt;br&gt;desert BOOL" style="text;strokeColor=none;fillColor=none;align=left;verticalAlign=top;spacingLeft=4;spacingRight=4;overflow=hidden;rotatable=0;points=[[0,0.5],[1,0.5]];portConstraint=eastwest;whiteSpace=wrap;html=1;" parent="YlbDnyNl1JNBiLBAhTAw-87" vertex="1">
          <mxGeometry y="60" width="160" height="70" as="geometry" />
        </mxCell>
        <mxCell id="YlbDnyNl1JNBiLBAhTAw-91" value="home" style="swimlane;fontStyle=1;align=center;verticalAlign=top;childLayout=stackLayout;horizontal=1;startSize=26;horizontalStack=0;resizeParent=1;resizeParentMax=0;resizeLast=0;collapsible=1;marginBottom=0;whiteSpace=wrap;html=1;" parent="1" vertex="1">
          <mxGeometry x="224" y="1238" width="160" height="98" as="geometry">
            <mxRectangle x="80" y="160" width="110" height="30" as="alternateBounds" />
          </mxGeometry>
        </mxCell>
        <mxCell id="YlbDnyNl1JNBiLBAhTAw-92" value="id SERIAL" style="text;strokeColor=none;fillColor=none;align=left;verticalAlign=top;spacingLeft=4;spacingRight=4;overflow=hidden;rotatable=0;points=[[0,0.5],[1,0.5]];portConstraint=eastwest;whiteSpace=wrap;html=1;" parent="YlbDnyNl1JNBiLBAhTAw-91" vertex="1">
          <mxGeometry y="26" width="160" height="26" as="geometry" />
        </mxCell>
        <mxCell id="YlbDnyNl1JNBiLBAhTAw-93" value="" style="line;strokeWidth=1;fillColor=none;align=left;verticalAlign=middle;spacingTop=-1;spacingLeft=3;spacingRight=3;rotatable=0;labelPosition=right;points=[];portConstraint=eastwest;strokeColor=inherit;" parent="YlbDnyNl1JNBiLBAhTAw-91" vertex="1">
          <mxGeometry y="52" width="160" height="8" as="geometry" />
        </mxCell>
        <mxCell id="YlbDnyNl1JNBiLBAhTAw-94" value="location INT&lt;br&gt;name VARCHAR" style="text;strokeColor=none;fillColor=none;align=left;verticalAlign=top;spacingLeft=4;spacingRight=4;overflow=hidden;rotatable=0;points=[[0,0.5],[1,0.5]];portConstraint=eastwest;whiteSpace=wrap;html=1;" parent="YlbDnyNl1JNBiLBAhTAw-91" vertex="1">
          <mxGeometry y="60" width="160" height="38" as="geometry" />
        </mxCell>
        <mxCell id="YlbDnyNl1JNBiLBAhTAw-95" value="" style="edgeStyle=entityRelationEdgeStyle;fontSize=12;html=1;endArrow=ERzeroToMany;startArrow=ERmandOne;rounded=0;exitX=1;exitY=0.5;exitDx=0;exitDy=0;entryX=0;entryY=0.5;entryDx=0;entryDy=0;" parent="1" source="YlbDnyNl1JNBiLBAhTAw-80" target="YlbDnyNl1JNBiLBAhTAw-72" edge="1">
          <mxGeometry width="100" height="100" relative="1" as="geometry">
            <mxPoint x="360" y="1060" as="sourcePoint" />
            <mxPoint x="460" y="960" as="targetPoint" />
          </mxGeometry>
        </mxCell>
        <mxCell id="YlbDnyNl1JNBiLBAhTAw-96" value="" style="edgeStyle=orthogonalEdgeStyle;fontSize=12;html=1;endArrow=ERzeroToMany;startArrow=ERmandOne;rounded=0;exitX=1;exitY=0.5;exitDx=0;exitDy=0;entryX=0.003;entryY=0.275;entryDx=0;entryDy=0;entryPerimeter=0;" parent="1" source="YlbDnyNl1JNBiLBAhTAw-84" target="YlbDnyNl1JNBiLBAhTAw-74" edge="1">
          <mxGeometry width="100" height="100" relative="1" as="geometry">
            <mxPoint x="210" y="879" as="sourcePoint" />
            <mxPoint x="330" y="879" as="targetPoint" />
            <Array as="points">
              <mxPoint x="240" y="989" />
              <mxPoint x="240" y="920" />
            </Array>
          </mxGeometry>
        </mxCell>
        <mxCell id="YlbDnyNl1JNBiLBAhTAw-97" value="" style="edgeStyle=orthogonalEdgeStyle;fontSize=12;html=1;endArrow=ERzeroToMany;startArrow=ERmandOne;rounded=0;exitX=1;exitY=0.5;exitDx=0;exitDy=0;entryX=-0.002;entryY=0.74;entryDx=0;entryDy=0;entryPerimeter=0;" parent="1" source="YlbDnyNl1JNBiLBAhTAw-88" target="YlbDnyNl1JNBiLBAhTAw-74" edge="1">
          <mxGeometry width="100" height="100" relative="1" as="geometry">
            <mxPoint x="210" y="879" as="sourcePoint" />
            <mxPoint x="330" y="879" as="targetPoint" />
            <Array as="points">
              <mxPoint x="280" y="1109" />
              <mxPoint x="280" y="971" />
            </Array>
          </mxGeometry>
        </mxCell>
        <mxCell id="YlbDnyNl1JNBiLBAhTAw-98" value="" style="edgeStyle=orthogonalEdgeStyle;fontSize=12;html=1;endArrow=ERzeroToMany;startArrow=ERmandOne;rounded=0;exitX=1;exitY=0.5;exitDx=0;exitDy=0;entryX=1;entryY=0.5;entryDx=0;entryDy=0;" parent="1" source="YlbDnyNl1JNBiLBAhTAw-72" target="GmqAfNl9Jqc918hLIT2D-9" edge="1">
          <mxGeometry width="100" height="100" relative="1" as="geometry">
            <mxPoint x="500" y="879" as="sourcePoint" />
            <mxPoint x="760" y="1125" as="targetPoint" />
            <Array as="points">
              <mxPoint x="803" y="869" />
              <mxPoint x="803" y="1143" />
            </Array>
          </mxGeometry>
        </mxCell>
        <mxCell id="YlbDnyNl1JNBiLBAhTAw-99" value="" style="edgeStyle=orthogonalEdgeStyle;fontSize=12;html=1;endArrow=ERzeroToMany;startArrow=ERmandOne;rounded=0;exitX=1;exitY=0.5;exitDx=0;exitDy=0;entryX=0.001;entryY=0.266;entryDx=0;entryDy=0;entryPerimeter=0;" parent="1" source="YlbDnyNl1JNBiLBAhTAw-76" target="GmqAfNl9Jqc918hLIT2D-9" edge="1">
          <mxGeometry width="100" height="100" relative="1" as="geometry">
            <mxPoint x="420" y="1030" as="sourcePoint" />
            <mxPoint x="585" y="1113" as="targetPoint" />
          </mxGeometry>
        </mxCell>
        <mxCell id="YlbDnyNl1JNBiLBAhTAw-100" value="" style="edgeStyle=orthogonalEdgeStyle;fontSize=12;html=1;endArrow=ERzeroToMany;startArrow=ERmandOne;rounded=0;entryX=0;entryY=0.5;entryDx=0;entryDy=0;exitX=0.5;exitY=0;exitDx=0;exitDy=0;" parent="1" source="NPJyfYxu5IKuW3XJHxfP-2" target="GmqAfNl9Jqc918hLIT2D-9" edge="1">
          <mxGeometry width="100" height="100" relative="1" as="geometry">
            <mxPoint x="542" y="1214" as="sourcePoint" />
            <mxPoint x="600" y="1125" as="targetPoint" />
          </mxGeometry>
        </mxCell>
        <mxCell id="YlbDnyNl1JNBiLBAhTAw-102" value="" style="edgeStyle=orthogonalEdgeStyle;fontSize=12;html=1;endArrow=ERzeroToMany;startArrow=ERmandOne;rounded=0;exitX=1;exitY=0.5;exitDx=0;exitDy=0;entryX=0.5;entryY=0;entryDx=0;entryDy=0;" parent="1" source="YlbDnyNl1JNBiLBAhTAw-74" target="YlbDnyNl1JNBiLBAhTAw-91" edge="1">
          <mxGeometry width="100" height="100" relative="1" as="geometry">
            <mxPoint x="190" y="1260" as="sourcePoint" />
            <mxPoint x="301" y="1239" as="targetPoint" />
            <Array as="points">
              <mxPoint x="490" y="945" />
              <mxPoint x="490" y="1020" />
              <mxPoint x="295" y="1020" />
              <mxPoint x="295" y="1217" />
              <mxPoint x="304" y="1217" />
            </Array>
          </mxGeometry>
        </mxCell>
        <mxCell id="YlbDnyNl1JNBiLBAhTAw-103" value="" style="edgeStyle=orthogonalEdgeStyle;fontSize=12;html=1;endArrow=ERzeroToMany;startArrow=ERmandOne;rounded=0;exitX=1;exitY=0.5;exitDx=0;exitDy=0;entryX=0.5;entryY=0;entryDx=0;entryDy=0;" parent="1" edge="1" target="NPJyfYxu5IKuW3XJHxfP-7">
          <mxGeometry width="100" height="100" relative="1" as="geometry">
            <mxPoint x="480" y="262.5" as="sourcePoint" />
            <mxPoint x="300" y="507" as="targetPoint" />
            <Array as="points">
              <mxPoint x="490" y="263" />
              <mxPoint x="490" y="337" />
              <mxPoint x="309" y="337" />
            </Array>
          </mxGeometry>
        </mxCell>
        <mxCell id="_3rfKul8WqwpaAOft-Qc-1" value="" style="shape=image;verticalLabelPosition=bottom;labelBackgroundColor=default;verticalAlign=top;aspect=fixed;imageAspect=0;image=data:image/png,iVBORw0KGgoAAAANSUhEUgAABYYAAACFCAYAAADvuix9AAAAAXNSR0IArs4c6QAAAARnQU1BAACxjwv8YQUAAAAJcEhZcwAAFiUAABYlAUlSJPAAAKkuSURBVHhe7f0PUFRXuu+Nf8/rvdOnPG9IZUpyMyXcTNBkgiYjYG7Q5Dct8QbRK6hjO+TYBss2WOBoiZELYzwYdCCoMGRkCq5YErHkSK4UPUcUxz/MGOwaBX5H/twbgUoCVBKgYokVS6xY9qlY+11r92ro3r13997dQDQ+n6pty+rde6/1rGc9z7PWXnutf5AYIAiCIAiCIAiCIAiCIAiCIB4b/h/xSRAEQRAEQRAEQRAEQRAEQTwm0MAwQRAEQRAEQRAEQRAEQRDEYwYNDBMEQRAEQRAEQRAEQRAEQTxm0MAwQRAEQRAEQRAEQRAEQRDEYwYNDBMEQRAEQRAEQRAEQRAEQTxm0MAwQRAEQRAEQRAEQRAEQRDEYwYNDBMEQRAEQRAEQRAEQRAEQTxm0MAwQRAEQRAEQRAEQRAEQRDEYwYNDBM/Tu7dxeD1NpyuLcTGw10ikSAeYZx3MTLQhWZ7GbbvOYsRkUwQhArkAwiCIAiCIIxDfQ6CeOz4B4kh/q/NDTs2mnejWfwZiIR9Dhy1zBB/EcQUcaMLdcerUWVvQt9tkQYTwrOr0ZYRI/4miEeI0QE011Wi/HgTOm44RSIQllyGpg8TES7+JgiCQT6AIIiHmNFzuYjJakT68R7sWiASGR3FsVhTlYhD14qRFCYSCYIgphLqcxDEY42xgeGYZGx5faZIVGG4DRWnumhgmJhynO1lWPPOYXRjBuKWpGCl2Yy5c2Zh9swZCDOJkwjiUWL4LDavzsGF209gdmIKUhcznf5FFOZGRSBsujiHIAgZ8gEEQTz0OLtQutKKqp/nob7YirlhwOiVEqyxVQNbanEmKwZkrgiCmHKoz0EQjz3GBobTazGQ62fWTXsJotZW08AwMbXcbsL2N7JwIToLJw5nII5mWxCPOg96UbHcglJYcPBwAVY8K9IJgvCFfABBEI8Ko72o+7AApae6MHIPCItKROrWTGxdFo2waeIcgiCIqYL6HARBMGiNYeKRZ/BcNU7fi8GuD2hAgPhx4Gy1o3zAhLRdeRSgEUQAyAcQBPHIEBaN1D21aOvqwcDnPeg6X4ZdyTQoTBDEDwP1OQiC4NDAMPGIM4Dm+i7AbMHSKJFEEI80TrQ01cI53YqVr9NLpQThH/IBBEEQBEEQxqE+B0EQLiZ/YJgvQ/HCHGy03xIJHtw4i40xcxD1Qgk65IRbqEvnf2sfXtd5cAstVblYY451fR+fjLdzj6FFuXUmX+KCfV/ULv4WOFn6EpYenVmLvnsi8cFd9F06hu22ZMSIe0abrci392L0gThH0FHMv3fnXYG4pzu/rnP9HMVi13TPvPLXzfZYES/LaA5ilmahqHGAmXAVWL67G0uweaUZ0eKaMUtt2F7VhhFFvvXImR+e8vJbVk80ZG0II2UZ7Uf7dSDyv81B+I02VOW65RWL+JUa8vKTR2dXmawTUel21w6s4lztw0MmfOOj4iykuPXxhXgs2XIYLTfE925Em/C5FtPfzcVnx3VRoCX7EXsmS89EneL6rnRF+YyU2ROmg6dZmZbEu/IYbbao5lELdb1ndbM2F1WtKjZBDS15eR0quqk374bbnFb74fVdgtOfq7ZQdumzKNpiGbv2mL1S6gcG0H2ZfSyOwezvvMug2Q782VkvRN6N6rff67vloVIHQdqllJoBkebLYK3VO29+Ca6uRq4wH7DWnWd2rs2fvnahyOf67PBqTwq560S9/fi2eY5Lv9x+y4/900vQda7TL/tjsn2AGy3b4vbHbliZOuzK/GSh4kooOiHQ6zfGCFXfbuF0puteuvy0H98xlpfJurdAv+0cR1/b8d8u1XypdizkREdZsny+d5txt5VJsGu6ZczaE99Z3uYtQ+4Pu0fFKX5w9tZ6xcRyWyxT/HYifIlPn4Ddu7UEi9j5i1ibVLbjvhousyUoatVn5WS77hXbs5jgcBfcxQgqXpFtjm3MR0fFmJHCfUvvXXHCOMZ1RyBiGS8bwXzS6a+08uxxuG2Zlq1Tizu/qsUaVg8xWWdV24UXWtf1OlTKrNvGO9Fdm4u3l8aLa7nKXtro3SfTLQc3huuNHXscmr7EeaVQlMNtY+7idBb/OwunxzZC9YZvOOjvey8M5PeRsdl6bYbf/Bm10wyFLN19A3+2UF2/FP7Eb8ykE8N1JwiprxZEn2MMnbGO7hhq3F8qDy+ZGOpbjKOrHgX6YmrjujmGaps+jI5RbRm4D7eOqZdn4nyWVhvl42Kqsp6UeNZfew7gO/XAdEnvuN/jwA83Y/jBEOr25KHZy2iZMHtxBrZscR1piyNYWgQS0sbT3vi5eJp1rxcVbydiXXkrwhZnYX9lCfaumoM7F4uxLjETpzWV0AUfFE5ZW43B6Ayc+NCK2WJh9ZFTOViSWYYW0wKk7SnB0X25SJ3Vj5r3LFhT1es6KQjCY8fLsGWVa53muFUeabGKNZnvsMaSakXNaCw27S7BftbZjbvnQNUOlo8KRYAsy4I17B216PjZEmTvq5TzvfLn/bhQbEP8ctaY1JzDTDPS3Pf3OFxy/4EwWpZbI+hnH5HfNmLj0m04j1ik2ng5LJh7m8srGSkqHQpV7nWhdOdh9Ik/ZWbEeMgmGXE8jW/COJYWI3ZpZfXFDMlO+whmLRP6aFsE05UyrFuaiwsqgV/kYqvHdTKQ/roJzVU5SMlrGuuoTDpqZXYz3ISdqRZsZ2WasyoPBysLkL04DC0sj0tWl6FDX1+MEYMVHuXkdfP8QCOK1m9AhYEmpZSX67AiQW0/zGDybqTNcZTtR67vamxP3a2ob9axOWxlQUUOaj4Nx9KtBTjK8rNrWQS+4PbKnMyCBo+rO0dwc5h9mrpQzvLzwUA4kqz8HjYkhPWwoM0G8xY7BifCYenW7yAI1i4xuo82oVu1fGJ2qFEM1pXZxnzAk648H9yzBnO+bWL6moiNDSqBxwNX3Y3rp5DjROGR9xUaS/wPntuNNUy/6kbmIFX2W1lY+tNWl/0r02n/JoIQ/bLMVPoApmP/wT7GfHGaGZGub7zoKDVjzXv1GPlFitAJ1hZNDpTaErH9nEowLQisE8b9Rqj6NmjPw+8uTZlGeGH83gZtpxIdbWeicLb/CTsrtAd+ORNu11RQl3E/Gt47xuJad9tgcV7sqCveSD2skadxRnscaP7ObVtYTPxLJ5or2G8Ts3Ca+ypOqL5EtU/A3OCCbdhrNWGwqhh1nuK9wTrtpV2ItDHfviDALDd27dNZ8Yi3FbvKkcv06MM8pFti4fxsWGEb9Mcr3O4uMdtQdNnpijOqWft9awFM15hvWWlmHdUhcaZ//OkO31QzxcximdpOhC/egL0fVsqxSUL4EAaZOzLat9AXd5rwjwYnDhqKzwzZ+LvovnQZ93+5RpSd+ePvLqOCxWXmHWfH4iAjcgi63mrt6jaZaZA841L85eIJJLH4zYQmnLqkEjc429BQy35htSDpKZGmwUTpWTBMqs2ezPhTA7k9LbWh9LNwJGxy5c3dN/CyZ2pMoT8xRKh9tVD6HDrjEcMxlDJmZ8d8dxMOoW8h8xDE1IMNWYgZa9O5IvazIO5BP4buGRgLk5l8n+VlS9nBx8W4XqzzGheb+nhWT9wViMka93tk4ZvPBeSbesn2fLT03IFOkaDBtWLpOXaerX5EJDDEb73SGF/XZ0gvPr9cynp3A/tNsdQu0j25yc557vkM6eQ3ImGM+1L7gUTpuYQC6ZObIsnNELvfvGjpxd+3srMEIl8fXBN/i3OeS2L3/U6kCW5erJZO9oyKvwTf90vHf8POn8fO/16kMdoPsDSNvKvKwo0yP56I716ct1r6oEWZj0HpZEYM+36tdPxLkcZKefX3PG259P5l33vdvFwgJfLrecpDGpFOvsPy/k69pBQfxyV37/z5Lasn/soWkCDKIu733LwM6fhn4yWUGZNXjPT+3z2+U80j16nl7Do5UtY2Ldl0Sh/we6m2g07p+MFW6aaHfnDuszy/yH6jp03wPHyyk8s5Rzp/RyQxtGSv1T7U6s94md06Ui19oWgj99m1eD1YTgyKFG009eazaimZXcNc2SMS/KApL47Ip9c9DOZdyEZ/m9NuP/f/lidfK+sv49e5/3eXDiT+/rKPfjCllt5PYteaVyBddauo296qtgNRZ8oy+JWRJ/7avh/9NlwHodilDHYvRZt182mlZH6+QHo/X3k/LQzWFdMF8/OJ0vt/U+TZrQee9eTGRzZCjqrtSU3uWoxIDRnev3G1J0Wbd9//aL+HLDluXfHUXQMEUeeG/LIqU+QD3IjfjtlFUWZlG2g/cVC6qoxDvmNtl8cRanV6s1GHTnAM+A03oeibqIfEd3Okdew3uvy0UkZeTO69DdvOMXS2Ha28CnTHQt8xObC8vMjKlsnO96439z2mwK5pynhUuqkSR18tYu31+dXS8X6RpMH9Owq/yLj/2QlXHP2bE9LXIm0coRcGfInfPsG3F6Usdq8X370ouUIjFivlu+zxJwofr8b1Sm4HYyTbSf8xi6F45csTkoWlvZhxwifOkL5jfQafuCEI3RHl5n2Vqx4xoSb+2qqmPVePO3UThJ8wZuPvS3d88nVf+uI41xeNONSfHIKttzTWflldqN7v20ZWd6tZ+1XE5PdbNX2Ey7Zp2ANPgsjvo2mz/diMibLT99k9Ergs66WvlT6XyUzWuzEb44nBWEy1Legk6LoLoa8m8m2oz+HGp8xqeWTy0h1D+a9rnh/jfQs3kxFTG9dNqafSlUcVPVRDq6/PUdVzzgT5LE19/L5fOvJrdu+ESum6SOJ1PznxrEY5/cZd+jEy7vc48MPMGB62I7/AAVhzsTWY9WxGHTheNYSk7CwkKB8nzkzG+lWA096KbpHkBbv3xuW70fyMDfV/zkGcmCnsJjxxA1KjnxB/CaZFIe6/RwD3+tGn9q7AZGDJRfYCZT4i5J2LI9GFOod4QnL7rzhe44SJyXKXWTHrmBFuzsLWZUweNXY0T9k01CAJoSwJuwuR9oJCl7i89hUiCU7U2B1+Z+HKT52qBhCXnYm31GY4BCQGaVnxCFdsHmKKiWf3B5r79TzRN8Ekb5wUBlMQzcIofsvca0eFIwLZ2zeMzaZ3Y5pvQdpLQIfj/6i+OqOLf3oCT7KPsOmTUNBg8663zfnBNN2189WT//QT+ZPPdrlQVyuv3bUr2+yjH0ypkb01kdmWWpy85P3UPDK9UKUdmFh9lSCb1VfHkbPqNu5hIBS79EIKVi1jbbbur4o260TLv1XiZloi3lDUazCo1VXziWoMLstC9mJFnpkerLRaWD3ZcVX5APnGEFrYx+yf+5YzNEYw+Bn7eGGW31kz3Q2H0TyT5Xl9FNMOT5iurLFiLtPdT7qCfMXKCKH4ZTdT7ANGhvhcYzNmB7D5cdYsLHxG/OFmeixeW8w+mV0YdKWMc2tInsUcWCeC8BvB6hufkVlQiGYwW5QZD7fWTwlB3Tt426m37UwMTnSU56FqIAa7tlpUZ5zLTLZd8yvjJxCu1F9mHyJm6Qt2TGEKv8gwvcDukxUNdB3D6VAn1QTqEzyViH/ZawYaS1De7pRjl/xaIO1POUgIJDOnA3WlzHcvK8TB1CDfhlOJV7obj6GDtd9dueNvHI4xPQppIm6oOu9POP51p6+xEqfvsVjmDzlYOGmbak5t3GncxpsQ5lN2E2az32fzWM5gHBR0vf0kEas2Rbjup5g5OXjuBC7EWLD0ZZHgxhSPVPYbOOw4/5VIk2Gxhp3ZtpmZSA0w231i9CwIptxmTz6jl2pRNRzNZMnamtLnzt+GXVamd41NaFEGClPqTwwygX21oPocOuMRwzGUFiGNeTwMMbUTzSfL0IdEHNjnq4cTxqT5LMG0nyDs/2WfTz3hIaMpjGf1xl06eGjG/R4Spn5gmDub/N2yszmUa5YV1zBfdOE0+7iww73mlOcRi40sYMQ9/oKogm/bUPQOHxS24miN76DwGM4hdF+yo6qsDPlbLEhZGo+U0sl7VUeNhb+cpTBIguejkcA+ur8RFm+gBxfYR+riePXzWYcg9vV49tmE66HNtmdUY42XrPnaMSWa63QaJoSyaBqVp+LxButPoLFLfbkEzr02lP7PavTF5GG/VekIjDE6wHSztgyl+3Lx9moL4pmT4rqqB+eAHUdOMiOaHI+4UDKhhwBlHunpZI56CKWrPevbfSQj/zo76fv7rpON8uAuWk5U4yqisPSVid8tKti8625zWjgHUHeMGZ/pyXjtZfeV+nH9HPtYZcZCDXsTFmvGa+zzwud8KGmcWbMi1PMzLRoLWeCD4U50K17Nb37P7FVezXWgJpuQ7NJM1yuYrLPV4NmZcrbhfE04tv46nnVhQ0Sjrtob2ce5nLF1prxkmc4dixNOhSxHv+GvIkcjMsDroDKO3Yj3vG6MGWu01t+90YP2YSDhF/4GM26h+9+ZbxouQ0q0x3Xdx9JCVyD/vXzy5BKsX/Zkin3AzRv8IhF4Wk/d3R5AR2MtSstK5LVaU8xmbOb6ooLLBpnx0n8VCQEw4jcM6ZsHg/ZC7LwkBtMmbZBJneDuHbzt1Nd2JgZn65/wLn/Ayh9MRKlrrYvJtWuGZPzAiZHrdlQcbYNp8cagN22czeRvYr62/fMQHjzp7BOEryzEgcUjqDqQi+3/Uo2b1jLsMvuTt+B6G2rYx4ql5uDkqxqvMLvbyezuS8lYqCW76Bi5MzzYOaA5KONfd26h4zLroM+0IOElkTQJTGncyZmoPgvvuC9iV2BxUL/ujnto9bYweQPihitR57WmtWsZmKT1KZgtUjyZy3+DLjRc8ehD3nbgFPMdcZuWY67fgaGJ0bNgmHKbPQV0d3GHvQBzVWVpwtyXeaCgoncG/clUxuET2VcLps9hKB4xEENpEor9eChi6l5c5bFwcjISDMZwuplEn+Vm9MrHqGplMUBSrI/dm4p4Vn/cpZOHYNzvYWHKB4b7anOx0xGB9EodT/o1GPnS5VCUa554H75rE9XlbQPTI7y2foPvjCaBvO7Ly0uQklmMustduBNhRsL693HQFi3OUKIcLBXH2mrxfXDMjtDo5JrCvIyhWxamf9JuGP84jX/nO6BhHMU6NrZFCOPr0qSyRq9n7cgABFWW6WHyk6KbN7WePs/A7BfEf1Vxork4E1XDZuz/oxWzg316x9fqXRmLmKVW/K7SgeahMMQuSkH2h7myoVXDJ3hYWoZRSxkuliSGPvDll8BlHux3sH+91zTyORZrDKT6oGgj0fFYd2kW9n78MbZoNasQCDbvetvcGMpBvpeTUfqtBYcaisfXjLvR7xqMYnqqKSsmfz4bw+nua7Bzef3339J2zZGzeADri3Kdv9Q5Q/KaW+vKJ2adWaXOug4zs+niBEGodsm0IBlp07tQ1Tj+5Hq0yY4a3kkORmeM1JXXGne+x9g6Z4LBr/naoLGI1DP5Trlu2qo5GOTr7qX5rgM3eo3ZEWZz34jR0EuZIfRx2ausx+Z5eK9HZgyjdW7UL3sytT7gLoY+44FyFCL8iodvbmFBdHwy1uRVovnyEJ6MMWNlVhl28c6SDywodzDhsHNiA00vCsJvGNI3NwO1eDfPgUhbpb7BNBWq1ip1gB9WVInvNQn23sHYToG+tuOB0j6II/49hZIruedAUWY1Bs0F+KNVq7c1zoTbNTd6ZezeSCY6FvGrq3Hn15W4WLFc5yy4Lt9NYlIPu/xKCA+e9PcJZmBFVhZmdzXhwkAiDmzhg9KBcb0VADz9tO+sZ3X0xCvC7v7UpD25RbZTDK1BmYC6M4TBa+xj1gw87UqYEH64uNNF0LGByiZIaypcDf++7r5NiPX27BKkmhWz/q83oep6Ipa9rqFfzzJfEQN01DvGHkyOXrmIC8w+rXw90EBjaPl9lGy2Lgzbae+2vE5Xt9w3JjXqTyYiDtdbdxPSVwuhz6EvHjEaQ2kTSt9iUmNqvbo5MuxqI8+ET6C9nXyfpdTHGNtlzNpdi/p0j8BlquJZg3FXIIyP+/24+U/ic2pgzmZnAd8sojrwZhF+CJ85i/3rQMQbG5G9TG+wB6SW2TH7WAp27snEzqcqsX+Zwil/xZxhThOetJahaXei13T4wbp68T8lfLA03nca+3AbKk4Fv5mI8zvuPlRkJByv+5Uvtyw0zx8jAk8GORA/TizWs8Dca2FwyxykJBejtKEXKzJCa0RBlWVmFMuV26Gp6cItDPGnhtPVX4RyOkqwudaJhMI8pBoxTF440VJqQ0VvPHY1lCDd85WEB21jwaASHjys8Dz33jCaT2ZhSU8W6j/KwNyQ60sdPWUO/zl/4jqM+WuyJmDw1reNjHbVIn/tWnSXqbTDEAk273rb3Bg8cFgV7eHc/wODl2qxeWUPsv+1GlteYj8Ij5CfpjbfG5UDQn9aHfmk+DYsAs+zejn9zQj7TbTqbwaH2ti/8SwAcv3tZlZiJrItnkFPJt54LxYbK2rRbItBUoiRiI/OytxF9yl2fb55hSBkuzSNdZo2RaDqiB0t6XlYaBpCw/EmxG3KkWfYqO407Q8jdRWRiE1ZejvJQ+jmM4HM0Zjrr5huZiVia5bFayBmq3k3ojMP4/iljYgb82eu8iImDwnPiiRVZmD2AvYxGIvULGYzXIkTitE6N+qXPZlSH/CgR54hbkqfozrTy43zSgnWVfRi4Xt2HFzPdMijzbV8Lv7jyVdncPwcELdHfSO7cYLxGwb1jfNgADU7C9Ex04YTWVqzbALDB/wX+viLYbRUNGq3x1DuHYztlNHbdjzwsQ8u+K7kNZe0Zo3wB6xZqLlnxv69Ol8JnWi7xjEiY7HZk8ztXtQdysSSv2TgxMcsrgsYb8zAfPZbr+vf7kJdLfdFQWKoTyBewY1iun+jCeW1XUjKigmoU+H/Ra9NcaMnXhF291sn7rAPvwPrYWqDZHp0ZwYif8k+9NzDAD9U3Okm6NjAU3cFo1121FwRf+gi1HqbgaWrErFzxwk07FiOtGfdy8BUyg+Y1d8pi8DK9YnI38Ha/IAVs6OEfVpWgpUB7VNo+X10bLZODNtpz7bsG7Ooo4xJjfuTiYjD9dbdhPTVgu5z6ItHDMdQfgi+bzHJMbVe3fwpuz770NNG9DP5PstHH5nvrymwYk1PGT4qTGQ+bIriWV2+0wBBjfv9uJm6GcMPOlHxW5ez2R9C50Tm6ZlyY71wrUduWLr5zxFI/dCOvYuHUZeViXyH9+tvI9ccssFNSvFWDq6I/T1awa9rsDRbebzFu6rB09Gv7r1cT7yA1FjhAX4eJb/mzp9yqMtCzF6abkZc6A9WfJkVjYXsY/COoZpQJ5iyhMXiNTO0d/u+3YZzl9jnYpXO/zdN+N22WjjNBdhrCWVwshef1LAcmxOxUjmA8lW/vH6OGnLw4Kkz7xXjTKVN3jW3tGmS1gTVWeann+HOdwif8FdPQsa3jeyttmP/ggHUsUAhqM6wH4LNu+4250Ye5PMsVw4O/rkS6fypaflfXa/iTJuF2fxB+ylmWzSaiOv6JiS85FZq/toWs5BaO2A/6EXLKXaxmbGYFbC3aMKsWB44juLOPVdKKPjorHxkYikXuScTYJfkVzDv1eJ8G7vCgAN1XYlYH+xDBF11FY5I/srupTZ0a9SVDzfacL6V5XVRbNAdd9MvYuRXK0fvedz0+llUdTFftD4lwOBiOJ7m8hu+jA6vNQwnDt11Hqxf9mQqfUCXQ37FPHWB/95U9xVmL2HG0mXeHRqmlOj7d/FfD1zruOnR1SD8RhD61lG1DfldEUjft03z9V49xL2l1AF+WL0fFCsI6d5B2U6G7rbjgY99cB1bEzWME2Po3O6gHipPqF1jGJLxs4nj5dtTibazBVjYexjrjuiZxBCBJA/Z8GPTK2HMdkZg/hydM7M9MdgnGJXlHY70Pcfwv3aZ0VeRh/IuHZbmZzNlHdW2KUr0xCsRmM0fJl5vRIuW3b3eJr/yHPeK72CBPt1h/uj5APcIgh8k7vQk2NjAU3flYyPmh7H8sjhors/62VqEVm+csESrPOtf3nPCYxkYf/rr+k0vqpp6mW13oKHLhLTUN1Wv701o+X1kbLZeDNtpz7ach01LeForupVLDMg40f0p0zvm672WmgjGn/hgPA7XW3cT01cLss+hMx4xGkP5JVj7MdkxtV7dnDYTkTHs008bMc7k+ywffdxTjTOF8eiz56LuU37G1MSzwcZdWgQ37vfjZsoGhvsPlaB0IArpfwitcyITtQRpzPk4awpQ2ur7+uho12HUaMW5fIHtD6uRHjWAmvQNKGr3aJli/vTgN97X5BtdFPE1YaaQ7rJi1Ckb74gDpaVNzDjbsDJehCHPLMFbySZZFkWKgW7OaGslys8BszdbsNBf5BIsvV2yIQnq6a+SoMoyAyvXW2EaLsO7pQpH8eAWmssPsfyxIGed7/pyF0pLcJo5q4l46mTiOt1/Czc9Byb42nnFJYY2xphs9JbZFJ+MdGZ0O4oLffWQMdh4DBcmYPmQySDYvOtuc4aYgaWWZJju1SK/2OG7xthoG8rL2fWjvDchiVuTwwLAJvyOOfVBr9840VdbhvJhIGGrRcfT7LvovMKdW5j6zNzJYiLs0rMpWL8MqLH/Fc3njqF72ZLJW5NLJgpLmZ3gG6Pkl7Vh1KeuulBR6+1YuhuqWScnBqlmrY5JYEY7HbjKPsc3ibiFuoNlGJzJN9FQBFg+mLAwxcYC3S4U7VPqCoPZoNNVTRO69qAmofhlN1PmA+7iwgnWWZluxdJA7Vp+VWAAI4rsDNqLUcTX7/Pkhh2lZUOIzMrECh26atRvGNa3/sMoKh3A7PTikN7SCoqQ7x2M7TTSdkKhCaXFjcDiIB4qT6Rd0yvj27f8rm8Z6LXuUaXyc7hv5PI3ZyA1iJlqhvoEN85i+3tM3tY8Vs4nEGlhHVMWw1fsrAzcuWby3uTHpgRLXEomZst2txZ9ysEe3obLKzE4PRmbfAb99eoOs+1r/NzjUcWwjb+LERUHNuJgcRA7T18cNE7w9SYQG8rxB5HN53UuA2OKYbbMhMH/7UCdw44O5ndW6rSJIefXCD+IzZ464swsTkAviop9YyXn9WMoZ/38yPRkj9hiovzJ5MXhE9VXC6bPoTseMRJDBSKoGPFhiqkjsNLmp41MIpNtSyY9ng0l7tLiIRr3e1iYsqUkBoeHmLOpRfb8iXAGM5C6twDnl+9G1XozWpKZk309Hk87O9HOnG7dpbtIr/N+5ciL6THY9VEZRt/JQtVaC/CxHbtYvsLNFqyY7sDpHW/i7WtZSH0F+OJaE2pa52DXe2bs3Cd+PwWkWmehaqUZ51dtxNJXnsDop21oONnIGlc0tny0zWOTiCeQVFiN9B4rqtITcX6xhTWyWMw3jeCTpqNMFrdgWlaCM57rwARNJ46XleET8Rd/Ba3lVCMzJGYcXKl9/dFzuYjJ6kJ2w8UAr7oEVxaTOQcn0luxpsqK+F4r0hJj8Tx6cOlkrbxb9twt1ap6Nzg8goR9RyfgqRML+jZHoaK0DGtW9yN9/SJE3u7B1TP1GF2fh/RLTE/FmZ70N1WidMjDScmv9DGj95QVmxKVM3AUsmeM9roee58/whyex6i3O10N3WVmgWz2H2xoXluNnYnxOG21IumVWJhutOHqxXqc7orFwSsbxMmBUMl7Vy1rVya8tifF7+yFoAgy7/rbnKC/CeVlQx6DTa7lCU4zPU5Le3PsCWjYsgKc+LSH6WcmzE1mpFrMmP+yCTcdTThyigUGpkQc/HOG9yYkUVb8cZ8DS97bjSWr25CWEo+XnrqL9sZDqLlyl12zBHtX+c7SUurUaC+3hyxI2mKd4g2nJsIusWvwzZpsZcj/vyNIK9Qzw0YDnXUVvioP+5tSsLPKhvgrybLcX3vGifZrrEPH6mrUVostLFAe7OpigX4l3i/jnahapOp9ZV2ZD/46N7suojKwfjHTufZaHPm3RlSxpPDXR3C+vAznxakcec1JFmDLbX7WImyyxiBs/jb8Mf0y06/dWPRaI9KsiS79amvDeWafO2JL0JYu/5wpRBO2v5KFzmw7Loe49I8vIfplmcn2AXfRd6UTLefKUMRMbcK+DdoPJgRxS1gwXVGG0rct+MJmxeKIu7h+5Qzq7lmx1+bATnndwrvoqGX5O3OMBboz8NrIRZSWXZR/72LYNWtD1P/s/99GpM3X6zdC0DcWdw1G2VC/NfAr9xPOBNzbiO0Mqu3I3wQDK9ttM/bvDuah8gTaNb0yHqhG/DtnmC6nYOFMsaSKiN86EIXsFD6FSZu+ajM2XktG6hJveyjL/yPvpXH0ortPwDuWe/JYu0rGoSyxrvC0aKTvz0BD6mHsrFyEM36XlFC3Ka+F3cHVT7vQMrIIhz70XGdZZ7wSnYGP9nUyH12IJW80YsWqJXgtPhzOtsto4HJ18rihYHwN+zEM6I7qPVgneqAT3Z1NeHpjI7bMF+fqRFfcOal+wqiN78eR1zPQsWoNlsZ7+hPXeR+pxEF+CbrexpFn/ZcdQ/7BobFlYPxjwsJfZyKyphL5pU5EbipEnF67MQH51c0U2+ypxvS6O05gcfUbTa68zRL9/No2OJmsT4iyh+JPpjQOn6i+mu4+h/F4RF8MpRdj9mPSY+ogUG0jrzyJO9d60N46gsV/LMYK3W9BcCbbZwEdJ1n9/V38weFLSbA2Y1qQh5Uv84QpiGcN+E69404P07jfQ4Okh2/qJdvz0dJzBzpFggbXiqXn2Hm2+hGRwHD/NqlYav9OpHlwsz6D/YZ9J/72xPVdhnTyG5Gg5E6P1HBgm5T4Krs+v8e8X0nJvy2WTl7zuD9H5OuDa+JvN0Msb/P471ZLf7h235X25WXpg98ul+bx6z3/qmTJqZau3lTPS/sBfo563lVl4UYrPxyP7+5/Vi+9/8+/kl7keWFlk/OiJYvvR6SrR3KkdUmvyr9/7vkY6dV/zpGO/K1fuvO9OGeMEenkO+ycd+olVjQfXGX1zp+rrMqD3SOjWPrkS3ESR6Vs7QdipOcSKqXr4u+AGCqLm/vS13+rlDJXCHmxukvcwH7zd235v5hRL32tcj25rKqy6ZQ+4NdWawffj0rtJ3Iky69YWfm1f5UhfXCmn+VK5TfuNqE83HWsuLG67AMfXvoVbJm/aZWO5KyVXuXthF/31eXSOpbHT/pHxQn+0cr7vKRtQj46EPJSbUtuXVZrh3rzbrjNue+pPISetqjlk7Wrv1dLWRvctoXryFop68hl6Ys74gQVbnaekN4f+w27/goutx7fdqClU6+ye5zo9DjfX9v3o9/B1kEwdsnz/t/3SOUJLI3bD4/zXXqlYXu9CKKuWFu+fqZYyvTMM5d7fad0U87DiNSQwdKZftjKW0WaJ0KOXjLWygf3MSekdqEDbtur61DUoaxfbt1lx7ykDb76xXT9xecTpfIe8bc/gq1zvX7ZH5PmAzqlP3B7wNrF+/Uq9sfdjhRt4A5rh2Oy5fV+oFH6gsUz43qoVb/qx5hMdfmNUPRtObNrKlZWlNPLR2ih4tPHmeR7C/TYzuDajsiroi250Y6FYlgdDooUT1zy8G4z4h6TYtd0yvjbTuYLN0jJQs/48eKvVsv+UDOm9OD+Z40sLl495ksD+y5P/VXgbmM6+wRfs79f5PI+pbQf96VP8nl5lkt/6NQRSajZFG7X/zJuB4KJV+70eMuGxxmZB+qldhW5GtcdF2r34HXX/q04wY2/tuqWu/JwxzmeDWAq/IRuG39f+oL74zG7rsMX+LVZLgzXm5eNGJUatvHfbZMaPOrApbtafdZ+6fiv+W/WSsc9+0w6MZLfR8Vme+PHZgRtp9VsKY8T1GIlb98alD/RamM+cbgfDNedIMS+mpvAfY5g4hE9MZQb/3U9hk77EVQ9CnTF1EHophvfNrKatemL0heKJujPrky2z3Lro88h/8ZVh2NMWjxr3HcaGncyMO73OPAP/B8xRkw8DPCdd9dWI/3jHuwyOBPg4aQXFW9YcH5jI86kBf+6NUFMGj+6Nkc8qozYMxH/HrDfUYlUPzMGOornYM3nBWirMjZbr/vwEqRc2ICLf7bCZ811IgRuoS7djJ0IVCddKHrBir59Dhz12pyGCJXJbjsE8bhAfmISeMD6Qm9aUPrLEnSVLQ/hbQViKiB/8uOA6vFxhMadQmHqNp8jHk9u9KB9OBqpr1PjJAiC+OG4he5/H8LcXy+gzj5BEAShAvmJycDZapfXaU1KNNOgMEEQxGRB404hQQPDxKQy2tmG5hgLEqh9EgRB/HCMduKqI7SN8giCIIgfMeQnJp4HA6grq4Vzpg2bEgNtfkUQBEEEC407hQYtJfGwQa+1E8TUQm2OIAiCIAiCmCA6qnNxfjQcN/lGt70zWYzp2uicIAiCIB5GaMYwQRAEQRAEQRAEQUwE9y6jqqIazU4zdtV9TIPCBEEQxEMNzRgmCIIgCIIgCIIgCIIgCIJ4zKAZwwRBEARBEARBEARBEARBEI8ZNDBMEARBEARBEARBEARBEATxmEEDwwRBEARBEARBEARBEARBEI8ZNDBMEARBEARBEARBEARBEATxmEEDwwRBEARBEARBEARBEARBEI8ZNDBMEARBEARBEARBEARBEATxmEEDwwRBEARBEARBEARBEARBEI8ZNDBMEARBEARBEARBEARBEATxmEEDwwRBEARBEARBEARBEARBEI8ZwQ8MP3Bi9MYAOi7ZUZpbiNM3RDpBEI8W9+5i8HobTtcWYuPhLpFIEARBEARBEARBEARB/Jj5B4kh/h+YB3fRd9mO8iNHcaH9FpwiGU8l41BjMZLCxd8EQTzc3OhC3fFqVNmb0HdbpMGE8OxqtGXEiL8JgiB+JIwOoLmxFidPXkRzr4hfnorCa4vWID3TgoSoJ+TTCIIgCIIgCIIgHif0Dww/GMLpHRZsP3cXYVGJWLnGjDei52DWnChEPmUSJxEE8bDjbC/DmncOoxszELckBSvNZsydMwuzZ85AGDVlgiB+ZIw4SrBxWzW674HFL/FIWBSDyOn/gcGuy2i+MoBRmDDXVoajuWaETxM/IgiCIAiCIAiCeAzQPTDcfTgZKaVA6oeV2J8cIVIJgnikuN2E7W9k4UJ0Fk4czkBcmEgnCIL4EeJsL0HK2mr0RVmw/4+5SI1WzAx2DuD0nm3Ybh/A7PRanMmNAT0fIwiCIAiCIAjicUHfGsPONtQdGoDJmou9NChMEI8sg+eqcfpeDHZ9QIPCBEH8yLnnQNE7fFDYhvo/F/gOCnNMUVixz44Ttgj0VeWitH1skSyCIAiCIAiCIIgfPboGhp1tTai5Z0Jaiplm0hDEI8sAmuu7ALMFS6NEEkEQxI+UwVOVrthl1zbETReJqpiwMDMLSRhC1fG/YlSkEgRBEARBEARB/NjRNTDc1+tg/yZiftRddDeWYPPSeES9MAdR8cl4O/cYWkZc541zC3Xp7Pt0O3y+UjBiz2TXykTdDZHgges7dh3FUdQuTuDcsGMjS9tovyUSPLhxFhtj+G9K0CGSDOHv2u4yKq/NN+i7dAzbbcmIEfmNNluRb+/F6ANxjqCjeLxMWofXvT3z8+AWWiqysCTedR6/x/aqNowo7uFmtPcsirZYEC/Lgx3uuvOUe3uJ1719D3dZ/dXvLZzOjJXP96onjWsHyndAgrnuaC9OF3vKzoLNxWfRd098r2DkirI+2fmHu8YGD1z1qEfH3DozByk1AyLNl8Faq3xOKLqlymg/2q8Dkf9tDsJvtKEq1yr0IRbxK7NQ1DgwvqGkEqF7rnx5HMVd4gSOUb1g9sRexsrjrZe8LroVIzPqMnay9GSWHouNTJ6uvAehmxrov6cW4/Xt71DLi672qkDdnihsq2gv6uXvQhH/jZrsuL2pysXbbts/pjMqujfWJgvRrCUgZxvyRdncNq67Ygn7ewkqmI6q4fIH2t+70JJ5PJZsKcHpzxUZ8isPT4RsPPV9rE1YoN2ch1CTKvIQUltheOaV2bC6Pe72OwcxSzXar2F/pGHHxL01/ZESDd/r9x6yTbL52GWlLdDPEFrOM5nPzETq6zoeaT/1Jt6yss9zl9HivqdWGYdZOi/fUqbjigqctLYrCOb63jxMdukuTmfxv7NwemwTVG86inlbUHzP9FqORVeaES2uGbPUhu2NQ+IEgS67FVgeY/Vv1H4G0UZUueHwkrvcNvbUestdy0ePHeP6pN0OmX8r4/7NI89c1/nvVWyV01Eoy39jnULuWijaeFSMGSlbDqNj1KgeaNtPrbK50v21KbeNDBAP+dO9Md+ndYh8adWViH+0YlEl2vXI0GFP1dumx+H2WX703tlVhiX8XFVfprMfJwjGvkxcfK6FwZhCA7/5UPOvggnTTRmNdvNgCHVyzJGMfIciD6ptlpW79644QQUt/VaJn1RtoxKtc9X8sBFd5eWW61bFLtxzuGJUdu6gv/5VQLvLD5V6F75pjdkV643purIRaZVHSybu/HjFm4Jg7jmhsaYTLftccX6R8s2sBwOuWPmNErT4tX/atp/jtjdKeY0OOHz0eM0eu/H4UtOHie816osvacZ1Lzqz1se+T5aNnBKbQ/zo0DEw7MTIN9ypmNB+ZC3WFPfj6WVWbNmSgfRFYbh+qhjrEplRHXadPZHcf8DVMAYr2L34/dIWG1jGghv8PXlo1hlgTRQjp3KwJLMMLaYFSNtTgqP7cpE6qx8171mwpqpXnOXJePm8jlUx4nsVHvSjbksiNl8LR1JWCQ7usSHpmX6cLrYhccdZhbF0ovswM+orc1DzaTiWbi3A0coC7FoWgS8usrozJ48b6BkxHnlIRhxPi0n2SItBuHyiNoP2PPzukrb5iFvlvpbr4LLh+V6nKhv96L7ucBN2plqw3T6COavycJDJIntxGHOWrN5Wl6HDM+t8w8WseMTbitH83Ryk5jLZfZiHdEssnJ8Nh2Qku482oVs12BCzelUwrlsKbo2gn31EftuIjUu34TxikWrj8rJg7m3mNHckI4UFE6rlYnn9D/YxJuc0MyJd3+hCXS/60fAec2gmdz5YG48dRTOri5TUwxryccMHaHm5hzF3SzUOpUUFfJshkG4Gxvg9ZWaakeahm+5D3Z4ZaK8KnFxeHvda4ceEGIK3meVmrCu+jPu/XIO9H1Yzm2PFQlMr0xkWoGzRCpxrcbJJvfPgegtF/CGYm7yB2ZwhlP9FTf+HcP6kA3hpA5JeEkn+UMrctgimK9XYnrobFzQGHoKnF1XnNNofC0br1JuzJgH19E4XilKtqBmNxabdJdifa0Uc68TwulhT4d1+Q7YZwRCE7+UbYqawDmzpZ+FI2OTSebddTknMwulg4osHw+hrZZ+LojFb14ZyJsyaE88+u9Dn7368M7p8N5pNiTj4UR4SxpziZLfd4K+vykNhl55AEtNlE5pw6pLKAIGzDQ217LpWC5KeEmn3ulC6mnXGdtSi42dLkC70Om1ROIa+8riGbrtlwuzFyvJHICFtPO2Nn0/wu3JG28hw27jceQyyOBwdpwqxbqllfOmT6bPwhsjvli1WJMxkaV51bMZsv7Pmmbjb/4SdFYqnXDMt2LWbVZqjEOUOjzp2dqG8qBZOcwH2WgLH5oMNWYgx21B02clir1zsryzBXpsFcSyeHboXhB5MEIPndmMN0+u6ERbjybqUhaU/5TrC4qEyRTwUSPcMxtCRi119KfeR/rrJFf/kNYX01oJeexoeO35vd5/DK5aOnSGnacLlsfMw+sSfaujrxwVhXyYxPldlSmMKFxOqm1pwW7QlBTsv/QRJJZXYax6vc37/JWNtlvWXqlmbfWsBTNdYuVeasdGu8UCI2dVQ+gu60PTDGqjp6rQIpO7KY+3UgfxKh4c8Wax/pJjFqGbs32tBpI74QdmWXYeww0ru9aLi7USsK29F2OIsly1cNQd3uK4nZuK0nwchQRPMPSc81jRhYVYe0qYPoeqAHX0e/YaRxmIUdUUgfd82LAzgpwxzw47tSzNR2srub3X1+3etmoW+2t06+prj+Pdh4iQV3PtcDEZn4MSHVh8/PGk2MggM2RzixwnffM4/I9LJd6Kl556PlhJ/f1m6+b1IFty/Viwlsu+e+80J6WuRNvabd+qlmyJFi5v1GezaGdLJb0SCB+0H+H2LpXbxt+vcaOmDayKB8029ZGNptvoRkeDia3bui88vl7Le3eB1DUNoXNuFWy7e1755sVo62TMq/hJ83y8d/w07dx4710N+yvJ5weTKy+p1b5GfF+e9KtlODopEwfej0tUDy9lvYqT3/35fJLL6+XsBk4N63Uk3L0vvJ/F8FUhXx38i6JQ+YL977kCn+NsTjfodYvmbx+71bo60jv3Wq55EebzSOEw2R37NrpVQKV0XSYYwdF13vqulL74TSQK3HltOjMv1eqVLnj6yVuC3Hr1w3z+D1aN3PY3xaaVkfr5Aej/f95pGdEsVIavn5mVIxz9T3Pv7QelkRoxcXtV8KeUsdNFbP4zqxah006fd35euFiWye62WjveLJIZSxq72za7J7u+d2yB0UwP999RCIy8CNXsWfHv1vZcr/wrbqtVeZESb98rvoNAvFZ1hUvjiuEsmnu3GdY8Nku0dpk+/8fQLbkalhm3RUnJ+gcK+uu+lostfnpAsyvuooi3z+3/Lk8ue9RePNuRXHp6o2EO3f2DtWb1OmA0pZ7rMyvm+8rfB6KnI64vzVksftCjtgLv9rpWOfynSGFPhj4z4XtV73GeyTWDlyqiXvlbUu9suv/juRemOSNONqo3yj0+bVJbxO5ZXuQ2ydjXkSnIz2W03+Osrecjs0v1W6X2m86ptVr6vp08alc6/y/V8uW8b8CIIuyXwF5Matp9BtBFVvhuV7oQod09U26HQ7ReZ7clU5vn7Hqmc3yuJxVMiH18cX8uuweyNh5/WpKfS1Y5V2vgYhvRAu3xadkytTY3Vz9F+hU+/z87n8Z+nPdWre25UfIYbDb3g9/1kJ89njnReh8FTLWuw9tSfbqt+J2Q0L0fKYv5cr65NlH2Z+PhcC21dU40pNPCbDyFfL32YFN1UlsV9LSbHeoUcRcz1YsYJn/6S9B2LIVTijTGU+iLKoho/+bQBFZTn+vHDweiqS5eWS+U9IqFfxJt6jJvfcgh5e9U7zwuLCxMKpE+UCiXivxd/3zpe51rtUuu+arIO8p6TFWve+UuObM/H2s13rI3zPORfHs+DJv59m5p9kb65KB2p7/HxoS4fFuMrWzX0+DCOsr6EfJ9LYjJQtiPBZNnIybU5xI8VfZvPcWbasD/XjHDFkzPT/Bz8MSsC6DqG0xM6AekWhvjEBXOU8SeNw3bkFzgAay626nmFdAIJT9zgu8HNtCjE/Xcmo3v96FN798EgzheysDdV8URp2hNYuGkzkuBETVObeKpzFxfqauGcbsWubN+6Q7gZ2VsTWb5qcfKSn9eC9MCfOhcUohnsXpnx+IlIDsi0nyDs/2WfTz2BCa0ptev22lHhiED29g0+T+xM8y1IewnocPwf14xrpwN1pUwBlxXioFLWofJCClYtY/VUp1zL0omWf6vEzbREvKHyxHSidCthdyHSXlBImz8531fo0h+7w2e2ysgQn2tsxmy1p9/+8KsXTyD8GfHfMUyImOX/JoP2TCx5z4HI9FqcyY0JrDfB6qYHhu8ZFKG01yEMXmMfL8wKOKvfENfPoqoLiMvO9dUZJoXZ1ixsZdXVceQsukWqCxOWrspEJPcLyqUfvjqD4+dikJoYLRLcRGDlelf5Glq9n0t3nz+GDiRi/bLg26Jpumu3xSf/KRgN0Gb2qhQksTwfV86O5pu2HhlBWqLOtfn16qklF9kLlHaAtd+tTN7oQp1jfMbfVPgjL4LwvaOXalE1HI1dub4zc0zzt2GXlYmysWl8eYcfintdKFptRdUNM/afrUSql5ma7LY7hb7ch0kumykeqZuYPjrsOP+VSJO5i2Y7uy9fCmSB0KWBMyhvdCIyqwS7lG3Ak6Dt1hQQTHw6/QmEqcidt5mJqXMnOsrzUDUQg11bWTsUqWNMi0b6/gzMHihD6alb8gysooIuxPFYIuB+BU40nyxDH7PfB/b5mX1nRA8miO6Gw2iemYXs9cq3f0yIW2PFXGZPP+kSsy316l5ImGCS3VQYTEEWdarsqTy7vGqAtbFMvKUZsunpxwVhXyYzPjfAZMUUnMnXzfE34BL2ncFRxaz/7kYeczF7kOs7wxHTo5Am4o2q874d/6D7C3rw64fVCaSrczcUYkvUAEpL+fIEt1BXVIiOmDzst07CZiyjDhyvGkJSdpbvLOeZyVi/iuXX3jqxfinYe05SrBm2LBcHFgOniyvR4eS+pxA1LO49lDtJ+1g9k4h0S7SPD539yiJWDif6vvQzo15Gpw9T4p7V/gzf/DhHY5+LSbKRQWDI5hA/WvQPDM9iSqvRYucuYArJOgDtPQqFcexGvFgrRT74mi5q69moMoLBz9hHRDgLkQzAO9f5rCEKI/OkSJ5SnEPovmRHVVkZ8rdYkLI0HimlOtdg04Hp9TnqBuSpaLzGX7MeGhEDe/24fo59rDJrvpoRFmvGa+zzwufckQfPoL0QOy8BaX/KQYKBChu98jGqWpmBTorFbJE2Eahdd6SnE4NMT0tXe+jk2JGMfD6A9f1918nX25ijAlYsNevUv2qs8bqev/XHZrpemzx3Ag2eHSBnG87XhGPrr+O17zkBujX75xqvBz4VjzfM7LOxy+fVwJs3uOeKwNMGX+M0pBcPnBi5bkfF0TaYFm+E2gZ5I60leIcP0KZV4kS2vgHaYHXTTTD3DI4Q2usos5f3mC3+WRAF9MPIZ7zNRGPl6xoB8rRoxC1hn8Od6Ffa9VeWIz1mCOX/5n5Q5aKPdfw7lq3DylkiwYOwRCvSpjtRd8njlaUHvWj+30MwpVmDf43YOYC6Y7WsQ5OM1172rcGqtZ5t1886amr87E2sTzPhwvEzTFbjyMtlPMUHM/TViV49XfjLWeo6+Hw0EthH9zeKHv8k+6MxgvS93V2N7N8FmKuqYibMfZkbpSZcH++D6IN12mUxyq/pGSEakUo9c/ajbodN7ozurStT6YxOdtudOl/uy+TbJdcyMl1ouOKhl7cdOMVUI27TcswVHaGRTgfrvLKO6WLlQyVvQrJbk8kEx6emlxfIbT7UOne2/gnv8oETeaBX3cOZYjKxf0sUmgvysHlPIZp1D5z04iozvUhORkIA+61XDyaGW+j+d3af4TKkRHvbf/lYWugaKPlePlm37oWCc8COIyeZrJPjERdkoDFp9tSTe20o/Z/V6BM6oJ1VPf24IOzLpMbnOgkQU4TGZOumE311WVjHB4V323HIZykYdv9Odv+XkrFQq4lHxyCJfQx2DiiWLzTWX2h+z+xVNr/7wwT0wyro0VVTDLbyB1+OQvwuKw/5jhjs3W/VuQSVQb7owmn2cWGHe917zyMWG7mtvMcX4phAgrzn5MWaM7CC+ZCE29Uoys3FzqoRV9yr0f4nBBYHDl53oK6qDKV7spCyOhkxK8u8YnZt9PuwMb5tQ9E7fFDYiqM1WoPCnEmykYYxZnOIHy86BoZNeJJra/8t3HQl+DIzSjYSPijXZFo1B4N8LZQ0xVquaowO4YthFijOivATdPjSV8uMjCMC6ZUTZ2SUjst1mNl9xAkeyGvQvLwEKZnFqLvchTsRZiSsfx8HbRMXTC6M0HpCHgbTT8V/OTf6XQN8rIOsKUPm+PizbmcI8REGavFungORtkrsMvuvLZ8BGNtlzNpdi/r00OSj57qD/bzCvNcO9DkWuxyh64k38PTTep++K9aKti1CGF+HKzVLde0m04JkpE3vQlXj+NP20SY7amZakKAhipB1i+kBf6Bw86bWE8UZmP2C+K8XdzH0GQ8SoxBhpDHq1QuxCH5UdCziV1fjzq8rcbFiucoMs3oWtLEAD/FIW6/y1FQNA7qpThD3DJZQ2uvwADrZR9yz+qZoKNuL67CiSnzvxtVmwmHyY0tNQib3fQL5CCx9ywxnTe34GnwPenHhaC+SEjU6dCxAX2oxsd80ocVdxl4WzA2bWKfHwKC88qHky8ko/daCQw3FqoPL3muU25AQ5lqHdHODnqfjJiz8H1aYvGZH38UFey0i15j1DWYY0NPZERoPdky+emPcZig70OJYWy2+10a/7/W+x7rAl2Y4XWvVGiFsFubzB6UXu3SuIedE96dc32MRqWhGLWXbkH/JiXCLDak+M1AZk912p8qXqzEVdulZM1bGAB31Dte9GKNXLuIC86srXx+PdwaH2ti/UQgP0DkLzW4FRq/9VBJafCo23fG85+s5aGbfhFTn9xwoyqzGoLkAf/Q70GtCnC0LK9j5Fy49gS27dA6cjAy76vQZHZM8dOrBxDCEPq4mGmttuw/3+tJ6dc8IPoNiS8swainDxZJEnQOenCmyp2M40VyciaphM/b/MYAO6OnHBWFfJjs+V8VgTKGOXv86ybp5rQybixxwhluwyaI2WCru/1PW/3cl+DJN/Mo9mWYMY/0F5dq8qXOGcIHvD1Puu55pQD/sg35dNcVsRPYqdv45B8K25Op4EyI4Rr506a5yXxzvI/B+PkYI9p6TGms+sxzZW6PQca4JfYmF2Gq0f6Zsj+KIf48rroLhs9j8WiwWrc5EEfMtnfcikLDIit9/aMNccYpfjPgwQV3eNlQNAK+t3+B//etJspHjTI7NIX68/Cfx6YcnEPELFpA1jmCEK5yaTtwYQgv7WKi82qxEbM2yeBmbrebdiM48jOOXNiJumR+n3sOfcJmQPseAdWad650FXaxzXY3sCXzljDuuFcpXJJjz6z5Vi2bPTWq+Yp37nCY8aS1D0+5Er0Gkwbp68b/QGbnHn9KpGWzRsBf/o+vP8Ah5tmwzO1+r6txEPhmkvPhOojsL0THThhNZ8X7vweGOaaFnH/F2F2oKrFjTU4aPChP1v6KhQM91w3/ONxYaxvw1WdgSaCz1v/DpjCxw+i6Q5NzEYn1WFuTNRtxY5iAluRilDb1YkaG44TTW0dkUgaojdrSk52GhaQgNx5sQtylHHkjy2UV0InRrZhTLJX/Gw5/vq7U98UrLdO5ePHjQg/ZGJgXWKdU9q9uIXogNW2Ru96LuUCaW/CUDJz5m8vTqPK/BoT9H4cjy3cjP2I2nPypAkr/xBoO6qY7Be4ZCCO118NNWDMKMubqCZZX2IjOMlopGL91ztZkROO+5/tYmDE+qDHSEL05BEnJw/NwQVlgj4Gy1o/y2FUcTmf6pbthiwsJfZyKypgyftOUgwcw6A/9WiUGjrxHz4GZVtEcQ9x8YvFSLzSt7kP2v1djykve14t7KQvZ88QdnqwUv/SYZRQft6F6ZETh4jEnG1pnV8uzo9JeYronlMtJ38HYfYPc5g3qqaZNE8Dj2CnJQNoN3oON930gZbkPFKT/lMOR7Pe+h4kdViVDVL/+I1xjLKlHXugF7A722f/uvOFnL5JeWyOyxSBMszP0YW/u3YU1VJtY9XYsTzJ57nTLZbXcqfLkWU2KXXMvI5O9g/nCAdeCjXP4Qy0qw8llxCiP8Z3yDrMD2KFS7FQi99tOLkONTsUney+JPzvfDaD7c6JrJExR84CRL9yZLfQ3VOD09GnOf6UVV5Vmsr1R7gKvgpzN0649ePZgYWL4WsI/BWKRmBbbxenXPCD59i3usPk9mYUlPFuo/YnnSpZtTZU9dOB0l2FzrREJhXuAZm3r6cUHYl/DJjs/VMBhTqKPXv06ybr6Si/rNA/jt2mpsfCdcRdfE/b914g778NvGwxSDVQb7C7MSM5Ft8ezPZuKN92KxsYLpsS0GSR4jcQH9sAJDujpwBkdOmTA3eia6qytx+q1KrPBZ6i50wme6dDfijY3I9jcGMoEEe89JjTXvOVBXPoDZ0dEYbDqE411vIjtGTxsS+LRHF6O9Z1FzyXOW8hBq3s3BhelWHGrIQ5JnnQ7bUSf+6xdDPsxFapkds4+lYOeeTOx8qhL7tZbBmyQbOc7k2Bzix4uupSTmvpLIFLFWc4f57itnmbJGYP4LGk+XPDD9Ikae7j56j6u3Nh0OPm/f4loaQQ8POlHxW1fnen/Qg0DqyI6LBRXeRyaWKl6FHrnmkDsFSSnehpEH3/09/InuxNDdMyQbBx+ut+EC+5j7erTLkU+bhdn8rbFTLF8a4h5leW5m0kp4KbjHox1V25BvYCdReQDGU457qnGmMB599lzUfSpOCgI91336GV5hQ/iEvyIViJ/NlINI/uTTv6b6YVY0FrKPwTvqV5Bfm7xXi/Nt7PsB5iS7tNdQnRDdCovFa0wfuo82qc+gu92Gc5fY52JFQNflkF/bS12gI3gWGNKLZxM96q0SbWcLsLD3MNYd8R2IMs204FBdHhJu2LH5nUI0+3kN2KhuamHkniERdHu9hZaLTAdeMiNOZyDr017kw+rdcWJEzprD7taLhlaNNvOgFy38FaeYGMxRe5T+lGuZBdcMMCdammrx9CaLz8CbFy/xJSiAGiaHUWcXztudxl8jlh9KepYtBwf/XIl0vjN1+V9ZFyoA06Iw97+xz2FXIBaQadFYsSlmbKbz2HIZOgYzjOppR796r9+lG6ydxrraaXA2w9WB9tYLdrzFHylpYNj3et4jD5v4K/1oRbfqq83uWbxmjVej/TPXkoWE6U7UFPwJHX47zUw3K8uY/4zC1jVqZQhDXPYxHE2biY5SKzbXKJYZmey2OwW+XJMpskuuZWR6UdXUyzqaDjR0mZCW+qZXx+9p1sH1a48EIdutAOi1n2NMSHz6BOKsinsmzZKXDVvxsiIY1cnQud36B06YT/5tQRcSdpXhxB4bnr6Uh9/peaNi2kxE8nErP/rjiR49mBjC8TRX1+HL6PBa01gdvbpnBJ++xXvFOFNpg7O9DKVNetdynDp7im+a8LtttXCaC7DXZ/kBX3T144KxL1MQn/sQakwho9e/Tr5uPjk/ByeqrIhkurZmRy36vPxjBGbzge7rjWjRur/ob8a9ohicC6K/4I0Js2L5g71R3PHx2QH8sCdGdJX5A9k+m/Pwv2p2I/0pB36356zOOjXI0zPlQbcL13qC112jBHnPyYs17+JCXhZqnrJhb00Z9poHULGTrzcsvtaDT3t0HVsTFYbtRhs+4V3JZcneg8IMZ38vror/+8WgD5P5zxFI/dCOvYuHUZeViXyHuj2fNBs5xuTYHOLHi741hmMs2MUaxYW8HNQp7ITz81qUHmHOyJyBVB1+YLTTITfEsOl+QuPbTTjOglW1mTta9B8qQelAFNL/ENogUEiIGdOD33gPoPOF74t4258o7MUobVUM0t8bQNVBvl6OGWljhnEGllqSYbpXi/xih++aTaNtKC9vAqKC3NSj/zCKSgcwO714QmdoTxam+GSks85PR3Eh6lQM32DjMVxwv1b2bAo2JfNX2gtQpGHQA9LbJQdOmjO42D3WLwNq7H9F87lj6F62RHv9ognRrRlYud4K03AZ3i1VBNQPbqG5/BDLbwTS13m+5s8c+AkWXE23Ymm83saoUy9u31JfR0yg9Xqs6QUrDn1kw+yBWmxMK1Ef8Jlg3dR1z5AJsr322lHF+npxa8y6ZmgYgs+EZeaEt5kalfX4Bu1lKB82YYUtxfeJtIyYAXydta1LfEYmC5YWBXIUEUhYxRxOYxPOs4PPZktdHLgTOqGwjkLHRfY508+rWwoil61DEn+Aet7hf7kMT4LQ0+6yYl/7NeJAaSnTjZk2rHS30ynyR6H63jgzs0msU1tUbMegQuedTG/KWV4j05N1xwJePLMce3ebYRqoxrq1JWgeVjEqo72oe8+CddVDmL2lEJqrGk2bgYRdldi/GGgusGCz3bMTPtltd5J9uV+myC6JZWQG/7cDdfzBCvM5KxVlMS2w+LVHY4RstyaWUNuIc+SWb4eexXw15fxtChvWLw5m5lkTSosbgcU6Bk6cXSh9t0xep3MXOzdsQSZ2JbN2kJ+n41X8CKy0+dEfJTr0YGJgvinFxuq/C0X7fG0PXw/6dFXT2OCQbt37gZlMe3qhtASnWR9Dz+xy/f24IOzLVMTnPyhTo5vh5jx8tM8MXCpEyg7v+8SlZDK7ze+vHDRm8LXSue2ZnoxNXpNZgugv+HAXnVf4YKLG2xx+/fA4+nWVb36Ww+xzDPbuYueGxWNrLjNueh98GSVqCdKYyLnu+vTjGaNdh1Hj5+WsoAjynpMVa4405GA7cz1pe5k/DGN9guws1rc6jJ2VITzo0WKaeIN6eNh7U3X+QEd3IGzQh7nhmzR+WI30KOar0zegqF1Rusm0kYYxZnOIHy/KxR/UmcaU+48F+GT5buxcbsHVt1Lw2stPYPRaIwsy2jD6VCIOMuPr87pJfxPKy4bGO8f8NfFTrKcQlaEeyN4eQEtnKxrKhEHfqH9mxeAw69Sl1yJ7fqBf9KLiDQtKY8vQ9aGRdbwCE262YMV0B07veBNvX8tC6ivAF9eaUNM6B7veM2PnPnFiiLxmW4S+zDexZskarDTPYXLuxIXaWly9/QSSSvKQ6vFULGxZAU582iO/emNuMiPVYsb8l0246WjCEVYXIyZWd3/OCG5TDybzwSgb6rfqX/uz42QZSv8u/uDwJR+YDpkW5GGl+xXJ0SZsfyULndl2XNbzihdD13VZhyP7DzY0r63GzsR4nLZakfRKLEw32nD1Yj1Od8Xi4JUN4mQmy0Jm0HusqEpPxPnFFqSaY/Fa2B1c/bQLLSOLcOhDz9coO3G8rAyfiL/4K4EtpxpZ4GTGwZVaZWD34JvQ2cqQ/39HkFaoPStmonTLZM7BifRWpg9WxPdakZYYi+fRg0sna3G6F5i7pVq0obvou9KJlnNlKGIOPGHfBv0dCb16MVCN+HfOIG5JChbOFMtXCLl1IArZKfwRrTqm+Tn4qGwU72RVY81q+O74GoRuBiLgPScAI+3VOdyFjs42VBSwDjsv66pJGDydFo0tHxWgnS+lkWxGw6o1LOCPx9PONlw6xdvMf8g6c8Df62nyDOAyVLF8DsZswC4db4HIg6x7cpBfwGpvWSGW6pwJPYbS94jXPk+zNpeW9qaPr/K2H+zcK6xswyYklFj0v1IlZkevO1iInttW7OfLZQQiCD1Ntc5C1Uozzq/aiKWvMD/8aRsaTvLXyXldbRvbtGiq/JF+36uO6XW3TdqNJW80uXR+lsgrs+HO6AycGJMP68RVWLGuzInUqo+x1xxYxpGWSlxEFlLeq8bGN6oRFpWIlcuimG4wG3e5FS3XB1iH4Qm8lmvHR+n+X02Vd+T+sBYj71hR+l4KNmJ8N/fJbruT6ssDMDV2yb2MTCXyS52I3FSIOGVZNOzRbAyg/VMWB4XbcHEL8xsTYbcmkFDbyKgjD+Yy1vbdcm9rw3nuJ53ebd4YzPbcZnH2bh0DJ2V5qBhgPrnBvU4ni11yC5FwKUeeWbcwwJISqvrzypO4c60H7a0jWPzHYo/XtnXogRsfO89kfY3/q4jHGK70AZw/wvzQrEXYZI1B2Pxt+GP6Zdn2LHqtEWnWRG/5xpagLV3+uX7dM0B/UyVKhzx0UF5KggVcT1mxKTHwG5hqGLOnxhgcHmGx4FH/s8uD6McZt21TEZ8rMBhThIppinQz0lKG+ls2rCll+rIFuFgh7AHTk4/2dWLJe4VMjxqxYtUSvBYfDmfbZTSM2Z4Csb5y8P0FZRsY7bWj7hIwe4tVexNeP37YjS5dZfDBy50VA5jN+pvudYXDluXiQAPrh/IHX/ETvaTEDKTuLcB5VldV681oSbZi5evcN3Wi3cHLfhfpdWJpPQ98+rijvZBXDlbaEHf6tVqUll3GS6uykPRscPeclFhz2I7f5TuA5DJku9cVjt6A/VvOYE1FHsoX2Y0tKRGIcDPeSjahuTEH5tFOZFtimdLxMZNWzMnNRcJ7xeJE/xjzYR5Mj8Guj8ow+k4WqtZagI/t2BXF7M+k20jjGLI5xI8XyQg3O6Xj+RukxFejpeeej5Ze/NVqKfNAo3T9jvh+jBHp5Duuc7yPVyVLzgmp3eP8m/UZLD1DOvkN+6PzoPQiO2/ebwqkk5/dd53ggevcaOmDayKB8029ZOPXTiqW2r8TaR64fsO+E3+7z8/6y6hI8IM411Y/IhI8cZfR49qcLy9LH/x2uTSP50kub7V09aainIL2Ayq/d3OtmH2nuLdnfm62SuUe90n8bbHU0KNdppt/r5ayNrjP53W3Vso6cln6wqfu3HRKH/BzD3SKvz1xl305qwvfenLn06ueRHl8jleXyzr0hWfdsXNffD5RKu8Rf/vDyHXdfNMqHclZK706b/zcdayePulXkd/3I9LVIznSuqRXxbVjpFdXbJM++Eu/5C65qx6VBzsvo1j65EtxkoyQm6dMv++RyhNYWkKldP17kcZQ1Q0DuuWf+9LXf6uUMlf8Sm5vsv5syJGO/N1TzzulP3D5vLpWer9+vKxjuNudl34Y1ItvO1k9bJCSfxXDfsN/57IpvC6uKsqi1Va+ZmXnZXhxxUHR/oPQTQ3031MLkZd36iVWTT6o2jOBnvZ68xT/PdezSlkPlLjyr9AL0V7Uyy/avFp+7/RIDQe2edSVy+acvKZiG+V7eN/3zplt8u8yz3i0MU975sN96ZN8fp8Y6f2/q9SjJu76Vx5MTv/MdLxFcS8N+/HirzKkD/42KE7iqNhDNV36tFIyszSzl/FSs6VB6KlH3d3/rF56/59F+533K5ctUGv/U+CPdPtehvY9uE1iOu8uEzvmJW1gOt8q3fSwi/y89vLV7Jzl0vuXdfhwT77plE4e9LTl/B48hqmX2tVkx9HS0e9YnSbxa7wqZZ7y1JNJbLsC475cyUNol8bol47/mn+/Vjru5TsVqNkj7sOuKXTCiN0S+PWnRu1nEG1EFRbvcV/pjr1d8Y0fvQ1Qx646iGF67a27LlzlcOv8fVbmRPZ34sFOnzjgi+NrXdc5pS1PT3z1h7e/i9IXPiYwkB5o2Xmdh0Iucr58bI9Gm9Kre6p2X+DWC+XhtuVqlaZC6PbUA3+6Lb57MaNe+lrl93I+3DINph8nMGzbJjQ+18JgTKGBdl0x1PyrYGJ1U8suML96YLnr+tsaver4Tk8jiyFWe/WXfG1PEP0FrTbArpF1olO646lnRvywEV11/z6JxfLKTPefkCzydRpVbegYWnmTceuOSr2Luhqz6aztJ6v5JlGeYA+vdmbwnvy3Exprfj8oncxgujkvQ2pQXuO7y9L7XIfU6sIL/75N1b6w+37iUe55vxHt1m/dqRPQh3nIzoshdi9evnmrpT98XDolNnJKbA7xo+Mf+D9ijPixYPRcLmKywnD00zwkTOBDqSnhhh0bzbuBfQ4c9Vqs/8dF9+ElSLmwARf/bNX3CipBED8y7uJ0Vjy2/98snPnr5MyCfORoL5F3Ek7/uAe7PDfKI4gfC3ytxzctKP1lCbrKlmu+QUP8yJlEPegonoM1nxegrUrlLUeCIIgfA2K8YHYw8SLFmgTx2KJvjeEfEX2fNgFWc1DraxFTwS10//sQ5v56AQ0KE8TjyldncPwcELnGTIPCBPGY4Gy1o3wY+tbnJn60kB4QBEEQBEFMLY/ZwLBrJ+q0xGB3hSYmndFOXHXEINUsFnsiCOIxw4nm6hJ0wIwtFp3r/xEE8WjzYAB1ZbVwzrRhk571uYkfJ6QHBEEQBEEQU85jt5TEI81jspQEQRCPHyONJSjv/wnQVYuaK/+BhH2+G4o81tDrfcSPkI7qXJwfDcdNvpFT70ym33am3/To/nGD9IAgCOIhgGJNgnhseeyWkiAIgiAeRoZQV3EYdf2zkPYhDQoTxGPBvcuoqqhGs9OMXXUf02Dg4wrpAUEQBEEQxA8GzRgmCIIgCIIgCIIgCIIgCIJ4zKAZwwRBEARBEARBEARBEARBEI8ZNDBMEARBEARBEARBEARBEATxmEEDwwRBEARBEARBEARBEARBEI8ZNDBMEARBEARBEARBEARBEATxmEEDwwRBEARBEARBEARBEARBEI8ZNDBMEARBEARBEARBEARBEATxmEEDwwRBEARBEARBEARBEARBEI8ZNDBMEARBEARBEARBEARBEATxmEEDwwRBEARBEARBEARBEARBEI8ZNDBMEARBEMTU88CJ0RsD6LhkR2luIU7fEOkEQRAEQRAEQRDElEADwz8SRs/lIuqFOShqFQmCjuJYlp6LC6MigSAIgiB+KB7cRd+lY9i+1ozo6FjEmJOxJnM3Ki6PwjRNnPMY0n14CfPVNtQNiwSZW6hLn4OoNw6jW6QQxKMIxagEQRAEQRBBcMOOjSyG4nGU5xGzNAtFjb0YfSDOCxEaGP6RELbYii1RQM2xWnSLAHv0Sgl2Vjkxe4sVCWGuNIIgCIL4QXgwhNM73sSSzGI0345Fam4BjlbbcbmtEwNtxUgKF+c9hsxdmYWE6W2oOurACA/wHjjRV5eHfIcJCdstmOs6jSAeSShGJQiCIAiCCIGYZGzZkuE6rIl4+nYTqnZYYM5rwkQ8X/8HiSH+TzzqjPai7sMClJ7qwsg9FohHJSJ1aya2LotG2GM8E4sgCIL44ek+nIyUUiD1w0rsT44QqcQYN9pQUVCAI00DLMAzIXx+IjZtzUX66zPECQTxCEMxKkEQBEEQhDH4jGHzbjSn12IgN0YkMh4MoW5LCnZeCkd2w0VsiRbpQUIDwwRBEARBTC7ONuTH21C3qhJde8wwiWSCIAiCIAiCIAhCBa2BYU5rCaLWVyNhnwNHLaFNJKGlJAiCIAiCmFScbU2ouWdCWgoNChMEQRAEQRAEQYTEf3Z9RIY/4fpPCBgbGL7RhqpcG5bEi0WPY8xI2XIYHYpFLUZ7z6JoiwXxMeK8+GS8nXsMLZ47jvOpz5l804lk5DtuiURBe4n8u41273Tn57XYyK+5tAQd95zoKE5m58ViY80AnOIcGfcCzcVdIkEw4kD+Up7vTO8NXh7cQktVLtaYeX488jsivncj8lXULv72ogtF/Lfpdoz/TGwc45U2zog9U/N6umQo6Cjm5zCZiL/HYTIq4zLylaVfJrKeFbjLrDy8ZDCFcuavNp4uzhora7TZgs3FZ9F3T3wvcMmYHXsc3rrmgfNKIaL5OS8w/TKyu77GguI++st5cBfdjSXYvNIs7sUXHrdhe1Wba11KVYTMlIdCXob1SORbXbdEnSiup30PBT46cBct+1geYiyo6NKqgXHG6svPoZbvYHRaC126bkh37+J0Fr9GFk7flr/2wbWRj/b3nrjKmowYOV+xiF/JF7BX2FI3OtuJFobrw1O3uH2u8Ly31a++66pDoV/ah0JHDdkJpX5r+CpWrg67si1noeKKWntyoS5HY/Zm5MoxbLe5612U5XCXz9pU+vSXiWbA4eMv1uyxj60j6qav18H+TcT8KGHDlsa7ztfyt25Ckr1ALabwa78UaJ07zNLlmKQQze78+/Ffzq4yLGHf6fdft3BajpPUr+eD5735a/t7rGPtwLVBhYf+3T6LzTwvWWfV1yV7wPwG/6343qUPGrqmJl/BZNgZQ+1ML1p+2Ovwvqe2zvn6TPW263F4+Hu9bcqN3Kb5Zo7yteKxxJaLqlZFXYyVzwImHg2GUJMq7ukVf/j3U56o6YkROelC6EmKO2YXZT79lfjeb9tWj01kDPYFfA5P+dzoQp0yjyyO9oklJq1eDNoOgV7/oERLv5V1YCTG8tSb0V478j11fEsJTn9uuJX7otXuVeLvgLYs5H6tSHRv0OpVD1bk2303GFKXO8vbWm0b4NsuRB/Bp8xG+1u+OudsLcEi9vcidm1lbfXVWNm5S1DU6r8eDZVRBS3dHDvc5TbiPz3RYTeCkoNWX7xPQ2fHDg/7q0uXnKx/xTe/ZXloV+ThwYDL9rxRgha/8b6GXqi1CX/2+cZZV3tQ9Rf641IZVfkxu9F7V5wwzpiOhNDHD+SHJ1UPH8Z6DkQgPy7QF0O6/bry8O8rjMROsr4G7I9ObD9dL92tTcD0ZLz2cujTbnQPDA82ZCHGbEPRZSfmrMrF/soS7LVZEPegH0NjSuRE92GmwCtzUPNpOJZuLcDRygLsWhaBLy4WY505eVwZp0UgteIM9i8eRk36Bl8lVcI6YJtTWefrGRvq/5yDuOkmxOXaUZ8+E80FLHCxD4kTNbjHHFxaJmpumLH/bCVSZ7rTe1HxdiLWlbcibHGWq1yr5uAOz29iJk6rNP7JxYAMA+Bs/xN2VmhGmqpMeD0ruP+Ap8dghVg4O23xD7jO5HATdqZasN0+wsqah4OsDNmLw5iDz8GS1WXoUCtCrR0XVBszM7hNtQpDZYy4VWIx8TQzIkWaF7KuMse2oxYdP1uC7H2VOLovFyt/3o8LxTbEL/cILD2RZQ5E8s1fZLknI05O0UcwejQpTDMZnGk4rmdexyrFKxgyE9fuvJlIXX8CSalWJoMmnLqk4nidbWioZXm0WpD0lEjTYPDcbqxhZa0bmYPUPSVMj7Kw9KetqNqRjJQyReAaTDtRxUh9CJjdqduSiM3XwpGUVYKDe2xIeqafBRM2JO44q+iYGKjDGTEeeRDtwXNB/y0xGNsHLaTy88EqC9ZUDWPulmocSosa0+GOUjPWvFePkV+kyG2Zly3B5ECpLRHbz/kGrhwnDz5mmpEm8rnCj+h8YIHb6ax4xNuK0fwdq3e+8duHeUi3xML52bCP7dJlq1nAtH1pJkpbTVhodclm16pZ6KvdjZTUw+j2CEhHvuE+2oT2I2uxprgfTy9z2aP0RWG4fsrlb70e2HImTPcmAT4ovHw3mk2JOPhRHhICbZzHYpDSnYfRJ/7Uw6A9D7+7FEQh77B4h9mKmtFYbNpdgv25VsTdc8gbVKypEO37qTexPo1p47kzOK8S5zhbG1HD/Ema5U0Euy/Y1NkZ7XZmlHE/6XlYkeCOGXWg5jPDYz2uJ2zemM/nR6x4/U93m+K4bJ7ZVoaWJ10xwcE9azDn2yYUrU/Exga1Dlovqs71iv8rGHCgznc8bNIIJrZwtpexjiTTk9pOhC/egL18vXKm3wnhQxjU2R9VJYi+gFf98WPxLKF3rP2xDuNOpsuzlolr2RbBdKUM65bmasSQE1svhm2HQf+gjq+Pf+Pn7pYYfIw12l6CNWtrceeXG1l9s99YY3HnSjW2MxunZ6KAX1h7+g/2ESj+1mXLQu7XupJHTjGbl8natGkB0uR75SJ1Vj9q3uM2Tk1HlHK34PmBRmYDNqBCQ6UmAzWdMy3Yhr1WEwarilHn2dRvnEVRaRcibczOL9BjrYMvo27b60aP/3Sj024YlYPfvjhm4Q133t2+ySMu3LLFjNmGdIn5mqw8pE0fQtUBO/o8fMxIYzGKuiKQvm8bFopr6oYPFsprn/4ESSWV2GsO8Io7P39PHpr9DEzqHUPg7XXJmPyYH61m8ntrAUzXmN1YacZGrTGjoPr4+vzwZOrhI1XPDL1+3FAMyfFqB+yQ/S73FbsV9RpE7KSrPzpx/XRdOG+h274b75bdQdLebRNzTb7GcEB6KqXE56OlFzPqpa+/F2kq3P97gfQiOy/x95elm8rzbl6W3k+Klp6bVyBdvS/SON8PSiczYlh6hnT8M/HFtWLpOXYdW/2I62/3b5OKpat3XEljfD8qXT2wnJ2/XHr/sjj/m3rJxn7/3IFO19/f9UvHxT1OfulKcnFfaj+QKD2XUCB9clMkuRli15jHyvz7VnaWQOTrg2viby86pQ/4Pd+pl8YvNSKdfEeZNs7N+gyf6wUjw/YDLO35Yqld/C3zHcsPO/fFd3OkTHa9MVn6YzLrWaDMq5oMpkLO47+plr74TiQJ7rP7czlYTgyKFJHvtAxZJzzTx/i2kcl5tfR+Pr8X07NvRLoeOg/K8hzLn1J/Ze5LV3/PdNhTzz24ebnAVXee+upGXG9cB9RkGIQe+VzXEyFfxfVU76GGXx0IjN/7KO0LIxSd1qL9IK+vALpuVHfvt0rvMx1UO99Vhhjp/b8HyKS73o72K3SF20NuS9dKx8fspLF2ooXR+nDn8cV5r0q2k4rrj9l877IGX4eiPXi1NzdB2AmPcn7N6k/OE7u28rbtJw5KV5V24juWT436VdMV1/302ZvrlS6Z+chTA2VZVPX3m4vSkfoe6Y5C3l8cXyvfa/xctz1Qrx+3LJ/7zQnpa5EWquy98KNj6vZLgfJcYRflmGLIlTSGuJd3Oxdta16OlLWNl8mzfn3rVUbEIInM9q7zuZ4G4t4vzlstfdAyKhIF7ljLo32724yvDIS/8WgvrvrX0DV/8p0EO2OknenGrz649ddbv1R1Tk/spaojAt1tyiUb8/OJ0vt/U9xjLK72sHfu8r3D6lHDl10vZ/FwfoH0PjvP2x5q6KgKanoStJyUfHtRyuL2Ua0v4InhupzIvgCnUzp+sNXXzrE4zae9TUa9BGE7jPoHJX7tLyMY/+y6Zoz04gqV+v7SVUZvnxEEyroU9eElZ3cd6bJljBD7tTcvVksne5T2m/Vjf8NlxGTsIT9NuX9WLSWz+5kre0QCQ7NdaMVAIj1UfyXa7YvvXpRcRb0vfZLvsk+fKOy9GobKGAh/bVd8p9d/GrYbeuWgsy/uwr9tNqJLd/6Sw9pojJT1F3G+iEdfzL88XgZNlPlwtw1mU+oVNkVDD11+fLmU9e4G9fpmKHVBNS798oRkkeV3wieeGBsPUrRZ+bpB9vEN+WE3E6qHD2k9a2HUjxuKIX3bwf2/5cnyHCsvI5jYSXd/dCL66WqIfPCyeB9MT/42qKPu9KFjxrATzSfL0IdEHNhnQaTmzsF3caGuFs7pVuzKNiNceV64GdlbE4F7tTh5yWM2FH/C+qEdexe0IT81y3fGkHumLyw49FEOFiqnrkx7Aguzj+FoGtSf0PInGTssyG+NRva/liH1WZHOGXXgeNUQkrKzfGf7zEzG+lWs9PZWdIukySdIGfrgREd5HqoGYrBrK6szkeqfSa5nmVsY4k9KzVE68zSJ9NpR4YhA9vYNY09W3ZjmW5D2EtDh+D/eMxJ/kohVmyLQceSsYtYOf6p1AhdiLFj6skgwwOg3fDaGGbP9zUi6/Vccr3HCZM3FLpWnceHmLGxdxmqxxo5m5Tt/N4bQwj5m/zzwUzxvgtGjR5GJanee3MXIV8wWTbSum+KRynQQDjvOe71ucxfNdlaGmZlIDTD7orvhMJpnZiF7vXJWnQlxa6yYiy580iWedAbTTiYQ5wtZ2JuqmBHAbf6mzUhi+lnT1Mb+5UxGHTJCKP+gPRNL3nMgMr0WZ3JjFLIG4qxZWPiM+MPN9Fi8tph9OgYw6ErxYAiD19jHC7PGZzPrxelAXSkzvssKcVApT1V02upnEpFuiUaYQt6zX1nEfudE35eKJ+Yzbdif61s/pvk5+GMWy1fXMZx2T274gXVPEx6TrLaiSvn2kR/kmZFVA4jLzsRbemae8riloBDNYPqcGY+fiGTdWHKRvUCx1hiPtbZmsnrpQh3TL45pgQVbWX6aT1701jcWG51k/iZykwUL9UzmUmGq7Eygdja1TIDP1N2mmM0/UY3BZUzGixW+ndX1SquF6aodVxWz6WavSkESs4PHmxR20NmGuiMjSEucijXAg5NTX2MlTt9jevIHlb5AKEx4XyAGaVnxvnYuJp75Ldbe+n1nq01YvQRjOwz7B6OE5p9Tc7f51vezFmTzWKiLxbwucxYUI0P97F//8bchW8YJsV8bnrgBqdFK+x2FuP/OynuvH316nN4/PYEn2UfY9CmwiIF07qlE/MteM9BYgnLWR+f+ML8WSPtTDhIU9t4Qk1VGnf7TsN3QJQe9fXF9GNGlsGW5OMDiz9PFlehwchtdyHTUikMsZjMmYfZb8QZPwr4zOGrRYVOG7cgvcACsj7v1da276YtLuxuPoYPZ4F25Vp94AtOjkCbqseq8wjkG1ccPzg/rQq8eMh6Zembo9eOG7a4Gpumumzz5T27LFFyd6e6PTkA/3S+eb7fakvFa1BCqMpcg3nYM3ffEOSGgY2C4F1eZ4UJyMhL8TlHux/Vz7GOVWXMaelisGa+xzwufc0fsAW+oH1Zjy7Nt2PkOcy7fiHRnP+p22FB1m7+qWYAkLcc9bQYSdlXi4LIRVL2ThZoeEVg8GEFLaSZ2tkZhy0fs+i8pKuKLLpxmHxd2iLUOvY5YbOTlvsdfMpoqQpChB87WP+Fd3gndXYi0KL3KNwX1zLp1g5+xj4jwoF9NnShGejpZR3gIpauV9c6PZORfZyd9f991sgcLkzcgbrgSdV5rQQ2gub4LSetTMFukGKHvU742TDRmKweJPBnowQX2kbo4XsNwP4HY1+PZZxOuj/sKGdfAczQiDb5iEJwe6aEaa7zkPYHrxQXFxLQ7Lx70o/0S8w8vBzGIF4C5XAeZQ2y44tG5vO3AqUYgbtNyzPUbSN5C97+z3w2XISXasw7EsbTQFcR+L58cdDuZKEyvz1EPAJ+Kxmsvsc+hEbH24STUISPY8o+0luAdPliVVokT2X4Gq24PoKOxFqVlJdhusyDFbMZmVo+qjDL7yZz+3J8FYT2vt7HAD1ix1KzT9hqw1Q+cGLzuQF1VGUr3ZCFldTJiVpapDGwzZrGAXkMYcxcksn+H0N7jCvSmSvea3zN7XdvvGtbumOSGGXvrynQNCuNeG0r/ZzX6YvKw36pviYNBeyF2MvshdxiDqO6Fv3S/0q7g+WgksI/ub8TTw2nRWLEpBuhqRLNHADvqaGSxUQzSk6NFipsBjKi+ZqlkauyM7nY2RUyYz9TVppiP4bbiXM7YmoKeR3Q6D+icruVnPPmZawmRC8fPeF1P3hzyKd5h8aNwjt2I97wPX/vY3/rgGgQnp1vouMx6ajMtSOC2fyKZpL7A6AC7bi2rw325eHu1BfHmLPk+qoRSLx4EZTsM+wejhOKf4zH/BXUdmf2ymf3bi0FdNkmdmzd4wByBpzXjY2O2bIxQ+7XOIXRfsqOqrAz5W1hssDQeKaW+DxRUeXAXLSeqcRVRWPpKlEicPPToXPjKQhxYzProB3Kx/V+qcdNahl3mUGzk5JVRt/8Mwm4EloPevrgBdOvSDKzYU4iE29Uoys3FzqqRIAbvneiry8I6Pli4245DegYL+YOF/N3ygwU+OMkH+9XRE5ey9trJyvZSMhZqqUV0jPyAbrCTxTOulDGM9/GD9MM60K2Hbh72epbR68eDtLtKnAOoO8bqwGv93eDqTH9/NNR+egBesSI7K8t1vFeMfz3fhq7jNjx9pRhr8poC7gcQiP8kPrUZGXatifdMgA7ijX7XedPDtINzJgg+Xu9UG/+ZHoOtuRbU2WpRVO5qzf3HC5A/4MRre3KwIlAHbFoEVuzIQt25QhQVD+FpnnaZNY6BAYSnVWPrfN9cjXzpCkD4Gi8LNa8/x2dgp2rtHFSJ/+tCDqZ3iz/8EKoMOfccKMqsxqC5AP/KOqF8rTNdTEU9jw7hi2HWYGZFaP/WA8NyNsBgP98IKQIJaayBahU4XMUoP7sEqWYWBNX9FdmvL3fJ6noTqq4nsr+fAFhwZIgHvWg554TJsgBzRZIabl01/ZO25P5xGv/O15gNfs11wIxIPYMYbgzokTyw8p74Qxd8faj4cQN7bxgtp/gaQKyM5yuxwt8A+WQwEe1OSW8bLtwzIfUV5cCKBnptBOdZM1bGAPn1DvRZrXKgMnrlIi4wue59PZBzHkIfV32+DtOqaM22/rRYFzDodjJBLIzQKg+rq5+K/3Imow4ZwZW/Hr/Lusucczz2rleZHSXjREeZFesqeuGcPgNzo2IRt4jVa3IWVjoyUcQ70UqGB9DJPhKeNdKQXbhmRbF6fVoxo0ALvbZ6+Cw2r86R1+4Ki4rGS79cgIRF8Xh+4zCO7KgWJ3FMeJLLr/MWbrIP1YclM6PkYNdNcLLnD5087xsYvqbsCo+ZFnyTo7piG3q+q8WZLO/BxpaybWi57WQxhQ2pGoMV3jjRXJyJqmEz9v8ra6tMF9Q2VPFioBbv5jkQaat2dRiD2OdgdoTG2yEm3/YR+TpfY7tQnn2SlsZt/V00NzUxM53HdM11Dif851zWDnxybQBboj16XHwQc0jZ+ZgKO6OnnU0hwcZeSvS2KbfN47NHXte2CS/5qIIJC/+HFaaaYzh93YotcufsLi7YaxG5xs46LE40yOepoKzP272o4+uD/987qG/IQpyeJhG0nMQbE6/McMX3OtAbmwTbF9CErye+1oaKXhbbPRON2S/HsjpMwYqtKfgks1h+yO9LCPXiJkjbYdg/GCUk/zyLjwOp4i8e1sddDH3GB5GiEKF5KWO2zIsg+7V8fdmUHN7BfwKzX5qDOf/NjITXZ2PTV0exXdW9qfi9qETs/bgQaTpD0KDRrXMzsCIrC+Uruf4n4mCN0dmJU1dGvf4zOLsRQA56++I6MaxLzyxH9tZDSClmMUBiCU4YHby/VobN1+7CGW7FJou+B+F9tbnY6YhA+nHX4KTmc0ZdcaloryzfmgPMcl+ZoTaxwGgfP2g/HBgjcdyjUM8u9PrxIO2uSl86PMaKQw154+vvBllnuvujnJD66cYJW5CD/em1WFNlZ3FPIlboDlZ8CTww/NMZcoGa742yLg4PXTQIj9B3HiPySd9v+ULUa7bUYnRxAeo3DGDR+gHM2vQn/LF/G9bssWDzP9lxaKUfYfJgOrUQV6NsqP9TFMqTd2Nw8W58tKkaS97LxJqwatQrOnnhM2exfx2IeGMjspfpD4jUncAwWioa1Tt9GorNd1qsueTRoQpRhq5OaBZq7rFO6F6Dr6BMRT338KerJqTP8ehU+sGwnA0Q/nM+u3YY89dksU6uK00fM7B0VSJ27jiBhh3LkfasEy3/VombaZWy0TH6pMbZakf5sAmpi/3PdnLrqvO7QFKPwJNeT/2G0M2fWJmjMdffz7wwpkfKgRUXd9F9qhbNylfoZGKxngVGXhvgWeYgJbkYpQ29WJEx2ZGsgpDbnRKXTgxOt2DpKzqFrtdGyERg5fpE5O+wo2WAOZyoITQcZ859WQlWei6Vowpr5wvYx2AsUrMy/D6M4ATfTiaGEVYnPM++iKBh8T+6/pzwOnQRXPnX4NCfo3Bk+W7kZ+zG0yqzgpxXSuRB4YXv2XFwPat3jzbW8rn4j4LBT1sxCDPm6hqQ9Cb8v+i1HwJdtnoINe/m4MJ0EXR5PtAZtqNO/NfFE4j4BfPfjSMY0cqCWPJmoYhKgpO94qGTm+E2VJxSH4CalZiJbIunjmXijfdisbGC2S9bDJI8GuXC3I+xlcckVZlY93QtTjBb5U+aTkcJNtc6kVCYp292Md8ZemchOmbacCJL6+2QwGjWswiITZ5fPZuC9csKsf3fWtGXFoXZX53B8XNA0ocp3nJkQfTWqGqUFliQ0mlFwrM/gXO4C82X29DnM2NvKuxM4HY2dYQQe3lhoE25bV5EIjZlJWp2nFThdTmzGuX/1ob0l5ieyXUeg/QdXPh+BmpnJWJrlsVroGOreTeiMw/j+KWNiAsYR4cipxmI/CX7+NaJO+xDT79Hb2wSbF9AHeb/S/mgcDx2NZQg3fP+D1hbEf9VJdh64YRgOwz7B6OE5J+dGNX4kWtgzgRTsO3tQY88c8yUPkfOnzrGbJknQfVrv6rFuzlNeNJahqbdiV4PvAbr6sX/lPj6vdGuWuSvXYvuskrsXzbxAxEyhnSOtX2+REIU64vcaEJ5bReSFH1y/0xdGfX6z+DsRgA56O2L6yEYXbrnQF35AGZHR2Ow6RCOd72J7BgDuXglF/WbB/DbtdXY+E446j9ibcbfTNSBWuws4JvvVQfehFBXXCraqx4/Eab2oMpgHz8UPxwA3XHco1DPY+j140HaXZ++9H9g8FItNq/sQfa/ipUDgqwz3f1RmVD66cEROYvH0XyDRvkjaAIvJTFtJiL55omnHP53hZ42C7P5Wz1+zhu95kAzU/KEl7wbtfNzVmnvHEbfgjyc+ZAFi/9ZfMGqKy77Y5xID8eFnEzsPKccIBGMOJD/Dgumn7LiaE0O4sZq2YRISyUuFsajr8KGdYd7ZUM7xtMzZWW7cK3HOz0AcW+JKdxeh9V7oMsTOZj2/c3WRIVxC0GGnKFzu411Qj2ZgnrucPDp+RbXlHsdGJazAZ5+hjv0IXzCXzkxSFiiFWnTxfo+zjacrwnH1l8H04kX667pWW/m567ZdHWXVXbhlLmLFgezTNPNiPMU+w2Wv1Zg7qJYXR0pjlE9kgdWfOopE0u5iPUyKxoL2cfgHSMtcYIIsd35INaDNrQ+p14bIXDpYC+qmnpZUOBAQ5cJaalv6nBw4XiaX3L4Mjq81j5SJ5R2MhF09wyp6/v1NnnW1dzXo116PdF1KAi2/KaZFhyqy0PCDTvzbYVoVkyB6L7C2j3MWLrMe1CYv7LW9+/iv17cQsvFNuAl1r6DmVH/s5my3dS2H97ostXMtnzCxyqWJXsPYDGc/b24Kv7vZu4riUz6tTipXENT0H3lLMtbBOa/4Aq8gpO966GTsh1lvxUrvteDCbNieYA1ijs+63XxmITvaTATHaVWbK4Z0JbnN0343TZWz+YC7NX5ml1H1TbkB7sztAcd/apP5EQbAFJjPUdfxS7K14/hAjMng1ca0THdivWJio7utGhsqanGLhZ037xUjYqKY2j4LAwJubW4XGUTJ7mZGjsTqJ1NFSHFXp4YaVPTwhHJ2+elNnTradSeiCVEnDVNaGG/7XPY0bFsXVAdFtMvYuQlAEbvBc5EaHJi5X2eOdTrjWjRoVMc3bFJkH0BdXrxCfP/MCdipXJQ+qt++eGXJiHUS0i2w6B/MExI/rkTfar1LWJe5qfm636YpKDLIS+hkbrA3wWM2TI3wfZrR5gc+MSXpBTvAR52RfT3sBhAFV+/t7fajv0LBlD3HtMhcdZEY0TnRuW2H470Pcfwv3aZWZ88D+VdRrRt6sqo238GYTcCykFvX1wHxnWJ9UnzslDzlA17a8qw1zyAip18HVrxtU6enJ+DE1VWRPIHIztq0ae17umDTlT81vVgYb+Oh1n6xhAiMJsP/vnzE6L/EPeK72QcjqE+fih+OAB69fChr2cv9Prx4Oyub186Bwf/XIl0/hZP+V9ds9GDrDPd/VFB8P30YHCi+1PuD8MUkwONo2ON4QistCXDdK8W+cUO9XX3ZGZgqcXPeaNtKC9vAqIUg2BfsYA+lQX0z9hw4kOr70Lh8uZyldi/eBh1LKAralV0Ktl15UX8+UYwH7EOgsroV2RqGXPCoiNX5+GEo5YgjQUrzpoClCqvyxjtOoyaAA/pJ5YgZSjThNLiRmCx/k6oN5Ncz7ebcJx1CExpiUFvZjORmOKTwVQCHcWFqFMxOoONrJOs9UqUWFi8+2gTms/bUcPXygkiMHW2V6KUz8zKtgZeb+aZJXgr2STrapHDd7H10dZKlLNrzd7sPRjZ3VDNHEgMUs16B8NC1aMg6e2SDauR2ZwTRyjtTokTHUfKWFkSkW0NtreiA1MMy7MJg//bwYIXFhRPt2JlwLxxTFiYYgPfuKBonx2DyrI+GMLpqqaxV7lCaicTgb3Y1zbfG0DVQb7ephlpYwPnE1mH44RSftMLVhz6yIbZA7XYmFaCDs+gSX7UP4ARRVMeZOUt4uupKum1o4r5/Lg1Zj8zm/zwbAo2+bEfXui11dPE0/HhYe9ZFDwAK+IBvIIYC3axDs+FvByfzXh4J7r0CPPN5gykimbzw+neXXRe4cG0RoAl9jTYvxhoLrBgs119MPNCaQlOMx3VPTOy/zCKSgcwO7048MyZAHSXFfvKbMSB0lLWBlgnbGW89/VNryQidfqQbEv4Wnoma7J63YfHI724Fm1dPRj4vBNtDWXYZYlB5D+J78eYOjvjt51NCRPoMw21qSgsXccCWG7zytow6mPzulBRqx3ARi5bhyT+oOa8AxeO9iIpMbj1ZUc7HfKAdeANoEKVE9OpNZnM/nGd0tsJ1ckE9wVM3G7038JNzzrh62gWl7jWRfRDUPUSqu0w4h+CIhT/3IvSD31tyMilMjl+jkzXsFUBuYsLJ2rlDfGWKuyhN8ZsmUwo/VrxxszgN956yDcqU3OrPxhGdO7GWWx/j7V9a568mVakJQvZUcENRk0Fuv2nUbuhSw56++I6MKhLIw052M6yl7aXb/YYgdTsLOZXD2NnpfEHRuHmPHy0jwnnUiFSdqi0G0b/oRKUDkQh/Q86HmYZGEOIS/HjJ7gdLudvdCZjk9Ysc0N9/ND8sD906+FDXs/e6PXjQdhd3QRZZ7r7o4Kg++nGGW111bUpmbWPEEeedQwMs4BvWQFOpEehryYT5jcymSBrcfrKWdTwDXPW5uK0CNhVz+MLYe/JRLzZvdh+xvgg2LAdG1fuZs7TtTNrnJZh4Lsw8kX8o4dRtX4titqF6vKdXVP5RjAxyP5XfxvBmBDHnPDBZT9Bc14KNo515GYgdW8BEqazil1vZkpdgiq7Q94sIj/TjPjUSnk9xKnEsAzHGMLgbTP27g7+NcZJqefbA2i5VIudG9jvWcPZuzGYmbU66W9CeRkLFhVHeZNrN7aOk+xv1tjlDhdrsNl/YJ3Jew7sTIzH23vKUNPIN3thZU2Nx6IdrXD6kaO8sDjfRfVgUxALiQ/hApfpv1QzYxIN02dHvfN8pAnyylXX+KZUZbggO4YnkFRYjXQWRNSkJyI+s5CV5Sya7cdcurq+GjeXleCjdO69nBjsasNpPkteDtxykap7JlDoehSYThz3LO++XKx5hxnW6WZkr9QeTO0+vARRL+Tigs+7PKETfLvz4CvW8WVl2VnF7Eu0CV8c9ygjO7z0sKzJa4MZ4zCn+etMRA5XIr+0F5GbkhGns75M87fhj6yszku7seg123hZeT28tgTbr3lslhFiOwmV12yL0Jf5JtbklrD7cltUiLffSGadV9YeSvKQ6jGrbkLqUEmI5TfNz8FHZRYWdFVjzerxQau4JTwwGkLp2xZsL7PjNGvHRTssSGlKxF6PyZf8Vf2WxsN4ewN/9dCGXauCHXhStx8tfOM7Xu87zmLEqK0ON8sPq/gGDmZboUf95AGbcr3WC5aZFoW0PzJ/CybL5azc+46hrpHXjw3xyawTbWL1s9fjNfUp0r3+pkqvdpqfuRy/4w/Ztli1N2+SY5JaZM8Hmt/zjCnGGRweQcJuAzMjh5ntZXW8f6uR12vVSbXOQtVKMzbuETJmdZySmIma29HYwjphPmvBio7Q4KFCFF2PwNb/wacshcZU2hmtdobRJmx/YQ4WHe4VCZPBBPpMg20qfFUe9i82oa+KtaHVuSji68vxNi3bPCvK/fWanhKbnR0sRN1tlRniaihjLHafxDw+oJeB9YsD/X4C5BSdMdYJXfKG1WVDLnE94ZvtJKOiXZxnmInsC7DO4GbWQRwuY7qYi1L7WZcer7bgfGIe0sVZmgRTLyHbDh3+QZwZLMH7ZwvSoqpZfbPfMP12+0pzZi1uMn34o0eZR8/lshhxCSr8Nve76LviQE3eBnlwJGH3hoADTYZsWYj92nCzBSvYby7seJPZQXYfuT2z9v0vQPp7TPdVUcTU7Mi3WbCz1YTXclN83rJU+rxSVh55xq3oc/ikq6FX5/hA3J48NCMZB7PEerrTopG+P8PgYJSxMoaCfv9pwG4YkIPevnggDOkS09vf5TuA5GJku9ebjd6A/VtYPgzP7nYRaSlDfTaLJVi7WbLFd3BvkOnQ7PRCFkf50aBgxhBU/QSTn2ivO1ujsIUvPeVncz8jffyQ/LAf9Orhw17PPuj044bsrhufcSDuezNRxXxcWtqbY/2LYOrMSH/UReB+urPrMFJi5mDJHofvMiVaeNppJou3l8YjZn016yNacXT3BCxnIhng5t+rpawNy6V5z0dLz7HjxV+tljIPXJS+uC9OEPiet1bKOnJZ+uKOOIEz1Chlvsq+n5chnRwSaW6uFcu/s9WPiATBd53SB0n8msulD/7+/5f+sCLG9f9rigx8Uy/Z+L0PdIoEwfeD0skM/psYdu1Bkci40yM1HNgmJfL88N/N+5WU/Nti6eQ1xf1Fvj64Jv72guWN//adeummSJGkEenkO8q0cW7WZ2heT5cMBe0H+DmKMo3hypePLP0wofXceVB6kX037zcF0snPFBdgqMogWDnz9ECHsi6+aZWO5KyVXp0nvn91ubQup1r6pH9UnOBClrHXb0elhm38N9ukhm9FEsNVHqbT34gEVUQZdB5ecvh+RLp6JEdal/Sq+D5GevWfc6Qjf+uX7nwvzmHyaMhg3zE9tpW3SjfH0t2oyTAIPRLtTF233HVSLLWLFI7rHsqDlSGjWPrkS3ESx0cHxPXevSipNAEfXPfxvvcYWvaFYaTd+SCuq+9w5y14GyFJ/dLxX/NrrZWOe8pOJ3JZ//lXcvvk95iXtEG7rDrbiRaG68NTt262SuW/ddfJq1Iis80NPdr3NV6Hoj0o/YUnRuyESjm/ZvXI5fziioNS+3eutDudJ8blz9vqgUbpC/ad5zVunuL1z9tHpXRVRUFc5wayNx6o2Y8V26QP/tIv3Q/GVjOf+omH75z3G2aLWlid+bMNNzul4/kbxn7j8i+N0nWt+glR9jJ+dEy+pufxKtOXE50e9pShVZ6xmORVKfOUsJviXi9m1Etf+9hekU9V/6USy3DEvdVtgAJxb37u/c/qpfc99MvCZHbVn570n5CS+bm/OSF9LZJ0oyZfwWTYGd3tjOXrxecTpfIe1/d+8aezfv1ZELGXRz35YLRNfT8qXT9TLGUq23R9p7fvV9OjTyslM0szewlIzR66y688XmV6dUJq96hLtRgoaDlpcKenUfrgt6t99KTdHYsFUZcyE9IXYLA6aT+RI1l+xfsb3MZlSB+cYTZWTbYTUi8TYDs4/vyDOEULv/bXAyP+efya96Uv6gs85Ml/4xvbth9g3ydUStfF3+p0Sn/gesPs/Pv1KuUSMlOLBwLaslD7te46/PIy0+/xmEe23cxhaLct32NeEqs3Wec8cJfN6BGCv3LZZNb2Tynb4n3pk3xXH/4Pnf61y1AZA+Gv7Xp8Z8h/6rAbwcjBt62o9cVFfWj0IXTpkntshOltg7KM312W3uftJYn5VL+C1srHfVZ/y+X8z9vW6IqJ3HqYxNq2iIc9ceVN2JJg4lKBmp/IPFAvtavUo6xjXnk32MfX64fdTLQePoz1HICAflygL4Z02yXlweqBj5HwGEqJwdhJtt0G+6OB+un3OyulZFb+xPzLgcc2NOy3lj8Mln/g/4gxYoL4UdNRPAdrPi9AW5X35ilTTxeKXrCiKr0WA7l+ZmbdsGOjeTdmf9yDXfNF2uMKn/n1ShaerOrEXqO7p04V7SWIWluN9AD1NWLPRPx7s1D/eU5osxwe9KLiTQtKf1mCrjKxe+6PBaH72OfAUa+NwQiC0ESnDVLl+mEsWl2GOR+24VCyjlmKjwD8LZOUCxtw8c+uXaEJgnh0kGP2KpvOWInFQ29YcH5jI86k6V06jSA8CMV/EsREQXr4cBFKf/QR7KfrWkqCIAjiB+ULvgaxFW/4XQvu8cLZakf5MIJeG5IgCMKFa+ftQSRi2es/jkFhvmFj978PYe6vF9CgMEH82LnRg/bhaKS+ToPCBEEQxA/Po9hPp4FhgiAeerqvNQEPycaFDwUPBlBXVgvnTBs26VmDkCAIQosBO0prnIhMt/ldd++RYrQTVx1GNl4lCOJRZbSzDc0xFiRQcycIgiB+aB7RfjoNDBOPDXG5PRj4wZeR4MRg1+csL/6WkeA8Y8FRdh69SgLMzbiI3t2TuHHhRDA/BwM66ivcUsnOC24ZiY7qXBTJi+lbkN/l2s3XZyMpgiCIgHShakeJvHlFyupCdETZvDZyeuQJS8TBz2uRpnvjVYIgHlXClhVjoM6KSPE3QRAEQUw1j3o/nQaGCYIgHhXuXUZVRTWanWbsqvsYu/zt5ksQBOEH55VqVFRfhvP1XNTX+dlBnyAIgiAIgiAIbR7xfjptPkcQBEEQBEEQBEEQBEEQBPGYQTOGCYIgCIIgCIIgCIIgCIIgHjNoYJggCIIgCIIgCIIgCIIgCOIxgwaGCYIgCIIgCIIgCIIgCIIgHjNoYJggCIIgCIIgCIIgCIIgCOIxgwaGCYIgCIIgCIIgCIIgCIIgHjNoYJggCIIgCIIgCIIgCIIgCOIxgwaGCYIgCIIgCIIgCIIgCIIgHjNoYJggCIIgCIIgCIIgCIIgCOIxgwaGCYIgCIIgCIIgCIIgCIIgHjNoYJggCIIgCIIgCIIgCIIgCOIx40czMOy8PYTuK2dRsycTFV0ikSAIgiAIgiAIgiAIgiAIgvDhHySG+P8jx0i7HUeOVqOuaQCjIg3TZyD7mANbYsTfBEEQBEEQBEEQBEEQBEEQhBeP6MCwEx1lVqyr6AWeiUHSsmQsNs/BnFmzEBn+BEzTxGkEQRAEQRAEQRAEQRAEQRCED4/kwPDouVzEZzVhbnY1jqbHIIwGggmCIAiCIAiCIAiCIAiCIHTzCK4xPISG6kY4Y3KwnwaFCYIgCIIgCIIgCIIgCIIgDPPoDQwPOFDXBSS8tQSzaVCYIAiCIAiCIAiCIAiCIAjCMIYGhkd7z6JoiwXxMXMQ9QI74pPxdu4xtNwQJyh5cBfdjSXYvNKMaH4+O2KW2rC9cUicIHhwCy1VuXh7abzrui/EIn5lFooaezH6QJwjGP2sC92IwPw5MzBy5Ri2rxXXjjEjZUsJTn/uFGcq0MpLVRtGFPdQx4lBRy3yWfmXxLt+z++5RqP8owMOVOXavM/dY0f32C55Cm60+ZyfsuUwOkbv4nQWT8vC6dviXAUdxbHj39+wYyP7/Ub7LdeXY3ShiF+3uEv87Uakp9sxIlI86SgW+fE6MlHnWeb2Ejm9qF387YGzqwxL+G+8rn8LdenKa/IjHkvU6tDP9b3RKqNbd5MRI9/HrV8DrFb1oJVfRZ6C1DFdMtasVyUirxr16Y33uSNXDmOzuw26dXvsIgb10E9djMuzBB0iZQxhC9aY+bXYOW4bo1EYLxvA9ceWi6pWhYy0ZDfM0rktW1qI5kDCMqzjgoA2cDLlxO5tL8N2m7fN3lx81tcOset12JX5zELFFW1906W3gdC0e+J7jqF2pdVWNWyLGz35YBjRt6gXLKgZEGk+DKEmVdxLte4V+Gv/N8669FhNT1RQrzfvQ93OCF1VHmp6P9qL08VZY/KMNltkveu7J74XjOVlj0PTFjuvFAp5++qWt133PIzpoVyvtvHryPk93DW2qa0rn2ry5fsdJMu/CUVm2tdX4t++j9gz5eur2SnD8ZsW/myasJPah7uMRnzPOMbjKndbVBxqMcIkXlvdvjB71HtXnKATvbZQdz2o4McvuvRU2bac6KvJlPOzhJV9rB3f6EIdswEpbh8l2+DD3vo2UfcSjNkTr0NxDX+21Av/bY0gCIIgCOLHhM6BYSe6D1sRvzIHNZ+GY+nWAhytLMCuZRH44mIx1pmTWUdEEaLd60Lpahb87qhFx8+WIH1PCY7uy0XaonAMfeURkA03YedyM9YVX8b9X67B3g+rcXCPFQtNrajawToxW+wY9Ah4b97qZ//OxJ0zmTDvuAj80oL0LRnYsmoObl6pxvZki0peelHx9nhesvdVynlZ+fN+XCi2IX45C5IVHVZf7qLleCEaRmYhwcrux+6ZviQCfadY+Zfm4oLnYBkLPLcvzURpqwkLrXk4yGW1ahb6ancjJfUwuhWDGYMNWYgx21B02Yk5q3Kxv7IEe20WxD3ox9C9J5CUaoUJTTh1SSWQdbahoZaV12pB0lMibQJx8rzONCONy5gdK2Jc6brgOrDzMPrEnz54XFc+bItg4nWYuttbniEyeG431jDdrRuZg1RZD7Ow9Kdcv5KRUubbudBEmV92zJ8hvgtVx4KV8QTRZ+ftqRVPL8vCwQ/zxnU7OQun5U7VFOihLMNErCtvRdjiLFc7YO36DrcxiZkiH25cNslsK0PLky55H9yzBnO+bULR+kRsbAjQ6eMd0uW70WxKxMGP8pAQLtKN4k/H9dpAo+iWUz8a3juGFlMsUm0u3UqLHUVzVY6PHeooNWPNe/UY+UWKkKUNCSYHSm2J2H5OffAiJNvA8G/3xEnBtisDtkVXPoLSt15UnesV/1cg3nwJmQdDqNuTh+aA/ktJDFZ4ysd9rPJTiQ9cljJysVWcn4w4OUUB9+mpFmy3jzB5uvxf9uIwtDC9W7K6DB1qBrfWrmHznWhpqlW10fyBDLfrNZ9GYKVHGQzpIZPf6ax4xNuK0fwd8w+5LLbh9s8SC+dnwwF9g7P9T9hZoTn6r19mk0oQ8ZsWgWzajJixehgra0yyR1oMlKY2sO8RGIyrPIlbJe6fZkakSPMimGuztP9gH4GuzeOPJWP2hV27mtmXtxbAdI3Zo5VmbLQrJkpoYcQWBlEPY8y04OjZAiTcqMXGtMCx8aA9CykFDkSm1+JMbgyLEThdKDJbsZPZgFmsXl02ldvgMu94eULupeAHjqUIgiAIgiAeSfjmc4G4//cC6cXno6XE31+Wbn4vEt3cvCy9nxQtPTevQLp6X6RJo9L5d2Ok555fLn3QMirS1BiUjv+G/zZDOv7Z2I8F96UvjmfI97WcGBRpktR+gJ3P0l7MOCF98Z1IdDNUL9nmKfNyX7r6e1de3r88ItLGuXm5QErk1/t9KzvTH/elm9/4luXrkxlyft6/7PHrby5KR+p7pDsKWX1xfC07N0b64JpI4PRUuu6fUS99rZStm/ut0vu8XO/USzdFkhtX3cRI7/9d3P8bJgN2PVu9sqyd0gcs/bkDneJvNyJd5dqSNCKdfMf7O5f8M6ST34gEzrViWQZe5WLyaj+wnNVFjpS1TXl93+u6uf+3PPlaWX/xkLXq9dVQKaNbHkf7FfUr8vf8Wun4lyJJE+38ughFx0akhgzva6vKWLNelQTKqyfi3Hkx0jwV/bvTUuydbyN6qKlvHHHf54uldpHiqo9E6bmEAukT5cVFu/aU332mE+bnE6X3/6aQx/eD0skMVheeNkApu+9Y3mSbxWQ85EoKiGEd12sDJ1NOo8xmyf/xgOlqEfv986ul4/0iidF+4qB0VXnud8y2a9S3mp6p6q0Weuwez6vhdqWt/6q2RVc+2G+D0bd3mG/w8kXjXC9ndZBfIL3PzlOvewUa7f/reu4jl0tZ725Q6Ik2rnrSOFfouaqd8cmDmu9wy7/axz9zGXJZ+/jztAxZbz3Tx/i2Ucpkuvp+Pvez3rrlKsc2qeFbkSAwoofXK7kPiJFsJ1Xu7YGqzIQdefHdHJbHUGQWoE680NZvzk2mD0o7ZTx+00KvTXOjw7bp9T0cI3GVm86DctnHvhP14ZOnYK6t9Alq1/7yhGTh5VCLV7/rl45z26ErBgklxvBXD374kpWH+xOPvCvblvu+iQdaFbLrlI4fbPXRt/vsfF4fPm0lpHu5+SFjKYIgCIIgiEcbHTOG7+JCXS2c063YlW1GuHJd33AzsrcmAvdqcfKSmFk2cAbljU5EZpVg14InXGlqXD+Lqi4gLjsXaS8on/2bMNuaha0zgY4jZ9EtUl2YsXePFbOniz/dzLTgYKEiL7f/iuM1Tpisudhldk/vHCfczO6xDHDW2NGs9cqgjAnhz/iWJfK/zhL/8+CZRKRbon02xpv9yiJEwom+L92zy5xoPlmGPiTiwD4LIrXWTDbFI3VTBOCw4/xXIk3mLprtrG5mZiJ1gerciRAZwuA19vHCLO3ZJRrIM6mqBljdZuItVod6MU0Pkz+f/KefyJ+h0t1wGM0zs5C9Pkoxu8SEuDVWzEUXPukKYfYmJyQdG8HgZ+wjCBlPGPeikf2er/6FLcgU+W5CC59QNpl6OOrA8aohJGVn+c7enZmM9atYPuytwg6w+52oxuAyVq+LFfKeFoGVVgsrkx1X1SZr3utC0Worqm6Ysf9sJVIN6KYSvzqu1wYaxZCcnmA2S/6PByZEzPItdByztQuV506PxWuL2adjAIOuFA+Ctw0sh/rs3oTZbhe+tkVnPoLUt9mrUpDEfNHxJsWMa2cb6o6MIC3RrLBJBhm2I7/AATD5bH19Muy/ghtDaGEfs3/uWxdj9NpR4YhA9vYNPv7ZNN+CtJeYP3f8H+9Xs3+SiFXMrsh+XjEzc/DcCVyIsWDpyyLBE1OIZXY6UFc6ACwrxMFUZtcM4URHeR6qBmKwayvTHZHqgx6ZTSpBxG9aTIZN0+t7OLrjqnFGv+Gzvs2YHcjOB3HtkSH+9pr/a3c3HkMHmI7kqsSr06OQtjWTXb8LVec13ixwM8G2UBfPWnCoLg8LWwuRssP7zT2Os70E69JrAUsZPsqOV8guBmlZ8T76ZoqJRxL7bO5XzJIO6V5uHoJYiiAIgiAI4hFFx8BwP66fYx+rzFioDGwFYbFmvMY+L3zOA2UWnnU65HWAUxdHy39rMfJZJwYRjZWvR4kUBdOiEbeEfQ53ot+rJzkLs30GPFyEvWJGAvs8/akrLxjowQX2kbo4XqMT/gRiX49nn0247ueNUDWcX7WhtIwFq1EZWBmvuPoDJwavs45nVRlK92QhZXUyYlaWKQZYenGV/RzJyUgI8Pr93OQNiGMdiIYrHgH1bQdONQJxm5ZjrmqgHCKjLNC+x+79M9eAim7uMbn8z2r0xeRhv1U5IOsH5wDqjjGBTE/Gay/7/qpqrffacXwNVP/rBN9C978zeQ2XISXa+7fysbTQNYD2vXxy8ISiYzd60D4MJPxC38BE83tmrzJEm60G1snWYHo85j4r/u/FE5jzCm/DQ7gpXv00rIc3RsbW6fTLF104zT4u7HCvM+55xGIjbyf3+Iu7nH60s/vhXI7K2qJMJrwDybRCXurAE2c/6nbY5EHhvXVlIQ0KB9JxvTZwjEmRkwJmk0au21FxtA2mxRuxVGl2bw+go7GW2bQSeV3iFLMZm7mc1QjWNsjotHsTabtVbYte+xukvv3sTaxPM+HC8TNedt/Z1oSap/hDlGBkJ+BLSOTvRjOsOJRrxpMieTJxDbJFI9KPrEZ6uE8fQulqXzlFvZCM/OvspO/vu072YCG3K8OVqGv1tOYDaK7vQtL6FMwWKZ7ErclDwvQm/G5DLopqz6LlSpt8dDB7qovrbahhHyuWmmG0Jpytf8K7/KHQ7kKkRalrJ0ePzMapxhoveQVYF1sXxuM3LQzbND0Y8D0yuuKqcfo+bWL3iNaMF70weO2bN7jRicDTmnXL4o9O5idfSsZCjRAX0THyQOlg54D/dWwnMY71h+kFZl8+ysDs1t14p8iBIWHjnP12bH6nGjeXleCjwkTNh2qjA8xf1TJ57svF26stiDdnyf5LjVDv9VDEUgRBEARBEI8ogQeGb/S71s+cHqY9wMcCNT4Hyyn6L4NDbezfKIQH6AwN9jvYv+EwaXRYOCYRBN4XwZrpSR70jWBEaxTlmVlenciRL12dHdM/aXfe/nEa/06lY6+Gx4Yj0Yk5aJmThzMfZyHO8/LDZ7H5tVgsWp2JonoHOu9FIGGRFb//0Ia54hSZkWGXbJ8JD9wxfdaMlTFAB7ueez3T0SsXWWchBitfNzrbSSfDA+hkH3HPGhlBc6K5OBNVw2bs/6MVs7WCeI5jN+I9AvOol5NR+q0FhxqKVdepHVvLTz5sSAhzrUO9WXM92SH0cRVTWRvY83jj59q6oYdQdGz0mgPNrA7fiNE3o2x8rUrXkTpnSF5fcF25gbWSlbwSoTnj7cnpirk3uvUwArPN7ONSm++6gbf7Mfit+L/ALUPvOlYeYl1Et03yWjPR9xhb/1nQUrYN+ZecCLfYkOrzhoIRAuu4Xhs4qXJy496IKDoW8aurcefXlbhYsdzjHL6BlgXR8clYk1eJ5stDeDKG1XNWGXYtE6coCco2CHTavZBstx7botf+BqlvLOdY+D+sMHUdw2k+ICpzFxfstYhcYw7pYV5fbS52OiKQXpmDBD/+cyIZ/JovihyLSD9V7vLpzN+lqctIPhbP8o0lnl2CVLMTNXV/HX9Acr0JVdcTsex1jdmpfH3STxpxcEE/qvbkYJ2N2UF2FPGBUB24ZnwCTz9tcPbrPQeKMqsxaC7AH61aI34u9MhsHMW6z7ZFCOPr0KYq1trlKPVbHPHvcfl7EET8poV+m2YAI75Hb1zl5kEvWs45YbIsUP/eE6PXZu146DM+6BuFCE3BivjjpybtBzey/WKoPCzxZMLjWAOY5mdil2UG+mqKUX6ZpwygpqAQzffikb1jufpALV+LemUsYpZa8btKFuMMhSF2UQqyP8yVB8K1COpegociliIIgiAIgnhECTwwHB7hGmi9NxowWIp80hW0hv+M7/gwAqdyoENB+M/5DIfA54F1258Und/I/8qv3Y+bWmOBorPvfss0fKZrqQfnd4FyHzF2D79Mn4U3xjpuC4DG3UhZyjpuY7OUhlDzbg4uTLfikKMHXeft+NfiHGRnWbEiNsq7g/DTGbply/O3cn0i6yzb0SLPCBlCw/EmYNk6rFSdcRM6g5+2YhBmzDUwiOZ0lGBzrRMJhXmBZ2T6DNjasNBpx+aVVlRc95VI3FtZTI7uIwcHP/4Yu15yovmgXbw6r4TJl1UR75injv3O90ibH9prscHrmKjDmGQk6KzDWYmZXnnfW9mEQxagr6I2+FdIv3XijvivEtdAD+90yh8MvXo4A0styTDdq8XGN2zILytDaVmhazf1eBurX3GawC3DiDc2epXP+0h0DSK4bVJEIjapnuc6khQyXZj7MU6kR2GkJhPrDvcG3fnTo+N6beCkysmN50ZE1gh0HMp0bQIm8ua8UoJ1Fb1Y+J4dXe0OnPlzGfay66RbWNvXmGkXjG0YQ6fdC8l267Eteu1vkPomw9r21plDKP+3Ntc9vjqD4+dikJ4cwqzLgVrsLOhCpK0A2ZOyhJAaQ+jmbwmYozHXzy1dPh2Yv0ZdRvJhjVEZiGftYBWzK+dOoEFepsaJln+rxM00q//NLJ29OHmyF6bFeThzrQcDn/egPl18F4Dw/6JXvzzhD4WyUHPPjP17/S0/wtEns3Fisd5TTu8Vo74mF3PvOVDaoFhqQONhZ9pixUPiIOI3LfTbNAPo9j0G4iqBs9WO8mETUhdrbFI2hvFr40GP/BaBacEcl3xVEfGHnzKOEeZn4J4x4XGsbvhDQys21txFwr5K7OVLCyEK6X+qRnpUG/L5QwufGfqs7ZYy39Ubj10Nbeh12HGmIo/JcwNSF0VrPggI7l5uHpJYiiAIgiAI4hEl8MDwtFmuGW2nHOq7iTNcT+pNSHjJNXvmaRbEmtCLhlaP181ViJw1x/958owP9hkTgzmiJxkWG48E9hut3d5H2y6yvABJL7gCafw8Sl5aou6y1iyAu2hxsA7IdDPi/E/+cRHG107z6Lh9woLW6U3YXnCWdZkYN9rwCZ8ktCwZSYpBFWd/L66K/8tMm4lI3tfyI1tPwhKtSJvOyt7Eyv6VAw1dJqSlvhl4tnFQ3ELLxTbgJSYXPa9hcr5pwu+21cJpLsBei45ZzLMSsdUjMJcHe/9ciXQ+26T8ry55+mNaFOb+N/Y5rNXpDcfTvE6HL6PDa03cCSZYHRNrbPNXpbU7S4EwYRZrE0zzcSfYDvv1Xgyp/dbd/pgOzPGYvKVXD8OWFeDMhzYkPdWDmorDqKhtxd1fbMQh1vHey22KJ0/PlGdmXbjWoyFDD6aFI/Il9nmpDd062s04YYjLPoajaTPRUWrF5hp/y5BooFPH9dpAzqTJyc2zieNtbE8l2s4WYGHvYaw7wg0V0H2FlQdmLF2mXGNzAH3/Lv7rRRC2wRO9di8U263HtujNR9D6xpgWjRWbYsbWSu1z2NERysO8B52o+G0hOmbasD9L67XySYD5tfOtwNxFsd6z0RU8/Qz3u0P4hL9CbxCXXelCnWOAOUt2v5pwbP21vzI60VyZh+Z7ZnnPgblGHeHPZiKOfWjrly9D53brf/CpU2Z+mRWNhexj8I4ihz767Tq2JioaQhDxmxZGbJpu9PoeI3GVjFhbWc+694avzehyyMuQpC7w94AnArNfYve+3ogWrfjjepu8RETcK8z2ulLUmeg4VhdO9NVkYV3FABbutuMQ83djkmRx8K46Fvs+xWLfd3bjgteAbS8+qWG5NCdiZbTioftX/fKa274Eey/BwxJLEQRBEARBPKLoWGN4fEZbfrHDd/2t0TaUlzcBUeMBuGmBBVtZcNpRXIgaf+vj8dlUfs4btJfJMz5W2DyCvWeSsd5qwmBZDoraFb8ZcbBOP8sL6zSvXywC0meW4K1kE+uYF6DIobI5SWslylkHZPZmCxb66z84b2kvX8Fxvwo47R9dn8PD3muG8gGJIr4WpScRWGnzI1slphhWF6zs/9vBOs92dEy3YuVkzRjrtaOK9TPi1pj9zIjx5kJpCU5Dz0yqCYJ1Hjsuss+ZWrNtTFiYYmO604Wifb4bmvB1Ok9XNQUegA5EUDp2C3UHyzA4k28aE8qM5bvovMJf8R2fVW8cO4rK2zDqJR/WUTtehlLWCUtYt8RbB3TroQmzk3Nw6HybPJNvoK0R/1q8AQlR4b71FbUEaWZ2VybD0lbfTZBGuw6jxjWOyYjC0nXsZN5uypT5Zox2oaJ27GRvps1Awq5K7F8MNBdYsNlubJBDr47rtoEykySn28xm+bEpY6+Oy69XDGBEobqD9mIUKWYsywRhG7zRafcmynZrotf+hqBvjMhl65CEWpw878CFo71ISjS+pq2b/kMlKB2IQvoftmmuGTsZdDdUy69pp5r9jzqZ4pORPtOl93Uqg2GDjcdwQbksghuxuWX30SY0n7ejZqYFCf7G3QbsKK91wpRmw8pgHlA8m4JNfvTLlyaUFjcCi/U9+NQrM7/0dskDh4Fm82pjPH7TwphN04tO32MormJXaK9EKbMNSdnWwEu2GLy2POh8olbe0G+pcm8JBXEpmSz/PP6oRZ9ysJGvE15eicHpydi0LIA+Tbot9GWwLgspBQ5EplfjUJrKXhFh8dj1UQESbvA1gEvQ4iE8eXm4/lu46VmvvLzFJapvd4Vyr4crliIIgiAIgng00TEwzMKkZQXyK9h9NZkwv5HJOse1OH3Jjqo9mYg321B1OxEHP8oYD8CnRWMLD+LgQH6yGWtyS1Bld6DZfkze1GNJhehEa5x3urYE21PjsSivDbO3VOOAV7BnQkIuf7VsAFVrzXh7TxlqGs+iZl8uUhIzUXODXZN1msfX/H0CSYWu82vSExGfWYjS2rNyXvIzzYhfLza1SA/wau/ty/jdK3wzGPZ7+XVv1yvfG5fytUZNWGFZ4poVFG6WA3i+UZHZxjpQPG/svLffyAM25cqzPjxRle0V/hsmg7W5irUFTVj460xEDlciv7QXkZuSEafR6elvYh2jsXzyoxYd/ItrfHMplXSBc7gLLY2H8faGMvRF2bBrlY6Zv4LB4REk7NYxk8pNfxPKvfLCyryayZPVWVramz6zrDpOKs5du4F1Hpk+bLdoriFomr8Nf2TydV7ajUWv8Vf1he4yfVnz2hJsv6axUZchjOnYaDurg7xtyHcwdfn5CM6Xe5arDMev8bMGcP4I+7u2y6uzqqzX/Mzl+B3vEG6xIiHY0aYFNiQMMP1j+sY3ceKbxeTbzFiyz8H0swR7VynX7NOvh/qZgdS9zBZMZ+16vRkpO9y2gJeRyTC1EjfFmZzwVXnYv9iEviob4lezfFfZ0cw3TpNtkhXl/kb7p0Ug9cNaZM/nG9CkYKOBwWHdOq7XBhrGgJwGqhE/33XvMZ3her+ab1oWhewUPl0WiFvCBy+GUPq2BdvL7DjN8li0w4KUpkTstcmnyIRiG5Tos3sh2G6dtkWv/Q1J354Sm9AdLETdbSvWJwY/eDE4PITZ6YVMdydo9McvTgx2teF0hQ3rSgfYfXORGmimsykG2X+wYfY9B3Ymxgv/zDf0YvLkPn1HK5x+bIW8ueWwHfkHmwJsqupE8/ES5rtisGtdsDOn1fWrhdcrbyc7xFtAYwxh8LYZe3f7eygUhMzG6MRxT53leXinDIPTzcheGSA+8YPh+E2LybBpen2P7rhqCBd42/2XavCNjU2fHfWwAew40gR5tV4RB13gDy90X/su+q44UJO3AdsbwfzAhsCDsNEZ+GifGbhUiCVvWLF93zHUXWLXF/HHztYoWaZ+l0uRmaA4VieD9kwsyXMg0lKGj7L9LMUx0yJvGDf3RjXWpbL2KA9+x2Dp5ijwTX/XMFtZaj/rav+rLTifmAflSi+h3GuqYyln12GkxMzBkj0O74cIBEEQBEEQjzqSAW7+vVrK2rBcmvd8tPQcO1781Vop68hl6Ys74gQld3qkhgPbpORfxcjnP/f8q1LihhzpyLVRcYJA7bzfFksnr42IE1T4blD6pNzjN68ul9blVEtXvxHfK/l+RLp6JEdal/SquEeM9Oo/s7z8rV+68704xx/3+6XzPI9jv3fdM5nls6FHUZ7vWd7YuYmvus6b9xt2nxZWlm/qJRv721bvWy5f2a6WMg9clL64L04Yo186/mt+zlrp+JciyRNxj7E86j3eqZdusp/fPJXB/mayyaiUrvIEBe0H+PkZ0klPOV8rlq/xYka99LWKLOXfiOu7GJFOvuNx77FD1AmXlSfi+srjxV9lSB/8bVCcxOmUPuDfHegUf48jy/effyW9KH47L2mDf931QuTXqwwq6NSxm/Vcxq58BDzc99Sq11dZGzzR6XF9nXmV8TiX5521pzGdTdomfXCmx0/bCKCHfnHXf7HULlLGELbAnY/n5v1KbmOqtuD7Uen6mWIp01PeK1i+6ztZecQ5HK129x3TlyT+u1elzFOeeqSCYR0X6LWBqoQop287pSM5Gzzu7bIranbyTueJ8fbBrmU70Ch98Z27vbvuH5RtCIAuu2fIdrtlpjw0bItAXz6M6dsH18TfnE8rJTNLM5f3iASOtr3ywd3+k1hdsHpR4rIpKnqigmed+iD03NVWRqSGDHYu14fyVu8yyoj8q+n9N61M99ZKr87j92KH8M+f9HvrvW+7GZUatvHfbJMavhVJDFf5PHSr/4Rk4dfd1igpTbhhPVTTL16vf+mX3NXvumYMk4uanXDJIRSZua6vPHhbK5Y+8bKv/u2727d46Z7AcPymhW6b5k+/g/A9uuIqcU+dx5icdF77D1yfmc99v35cN8Zwt1GV8t7paZQ++O1qr/aQeaBeajdgK2UM2UI3/urBl69PbZN1RM3XabWt+8xuJPJ7uO0Ts5XtJ3Iki9AROVY7w2XmnZdQ7/W32qmNpe53VkrJrA4T8y/72B2CIAiCIIhHmX/g/4gxYuJR4EEvKt60oPSXJegqWx70K8nED8eIPRPx7wH7HZVI9fMKdEfxHKz5vABtVZbg16j0yy3UpZuxE0Hcg/SQIAiCCIoQfI9fulD0ghVV6bUYyHW9EaHKDTs2mndj9sc92DVfpBGPHA9PLEUQBEEQBPFoo2spCeLhwbXTNkJap5IgQoX0kCAIgiAIgiAIgiAI4tGGBoYfJR4MoK6M77Rtw6YQ1qkkiJAgPSQIgiAIgiAIgiAIgnjkoaUkHgE6qnNxfjQcNy/V4nTvTKR/bMeuKdl8iPhxY+x1XtJDgiAIInQmaykJgiAIgiAIgiCMQjOGHwXuXUZVRTWanWbsqvuYBuOIHwbSQ4IgCIIgCIIgCIIgiB8NNGOYIAiCIAiCIAiCIAiCIAjiMYNmDBMEQRAEQRAEQRAEQRAEQTxm0MAwQRAEQRAEQRAEQRAEQRDEYwYNDBMEQRAEQRAEQRAEQRAEQTxm0MAwQRAEQRAEQRAEQRAEQRDEYwXw/wErPboL6m5NFgAAAABJRU5ErkJggg==;" parent="1" vertex="1">
          <mxGeometry x="35" y="-92" width="882.38" height="83" as="geometry" />
        </mxCell>
        <mxCell id="GmqAfNl9Jqc918hLIT2D-1" value="" style="edgeStyle=orthogonalEdgeStyle;fontSize=12;html=1;endArrow=ERmandOne;startArrow=ERmandOne;rounded=0;entryX=0.511;entryY=1;entryDx=0;entryDy=0;entryPerimeter=0;exitX=0.5;exitY=0;exitDx=0;exitDy=0;" parent="1" source="GmqAfNl9Jqc918hLIT2D-2" target="YlbDnyNl1JNBiLBAhTAw-4" edge="1">
          <mxGeometry width="100" height="100" relative="1" as="geometry">
            <mxPoint x="666" y="660" as="sourcePoint" />
            <mxPoint x="713" y="477" as="targetPoint" />
          </mxGeometry>
        </mxCell>
        <mxCell id="GmqAfNl9Jqc918hLIT2D-2" value="ПЕТИКАНТРОП" style="swimlane;fontStyle=1;align=center;verticalAlign=top;childLayout=stackLayout;horizontal=1;startSize=26;horizontalStack=0;resizeParent=1;resizeParentMax=0;resizeLast=0;collapsible=1;marginBottom=0;whiteSpace=wrap;html=1;" parent="1" vertex="1">
          <mxGeometry x="653" y="577" width="160" height="131" as="geometry">
            <mxRectangle x="80" y="160" width="110" height="30" as="alternateBounds" />
          </mxGeometry>
        </mxCell>
        <mxCell id="GmqAfNl9Jqc918hLIT2D-3" value="ИД_ПЕТИКАНТРОПА" style="text;strokeColor=none;fillColor=none;align=left;verticalAlign=top;spacingLeft=4;spacingRight=4;overflow=hidden;rotatable=0;points=[[0,0.5],[1,0.5]];portConstraint=eastwest;whiteSpace=wrap;html=1;" parent="GmqAfNl9Jqc918hLIT2D-2" vertex="1">
          <mxGeometry y="26" width="160" height="26" as="geometry" />
        </mxCell>
        <mxCell id="GmqAfNl9Jqc918hLIT2D-4" value="" style="line;strokeWidth=1;fillColor=none;align=left;verticalAlign=middle;spacingTop=-1;spacingLeft=3;spacingRight=3;rotatable=0;labelPosition=right;points=[];portConstraint=eastwest;strokeColor=inherit;" parent="GmqAfNl9Jqc918hLIT2D-2" vertex="1">
          <mxGeometry y="52" width="160" height="8" as="geometry" />
        </mxCell>
        <mxCell id="GmqAfNl9Jqc918hLIT2D-5" value="ИМЯ&lt;br&gt;ПОЛ&lt;br&gt;ГОЛОД&lt;br&gt;ЖАЖДА" style="text;strokeColor=none;fillColor=none;align=left;verticalAlign=top;spacingLeft=4;spacingRight=4;overflow=hidden;rotatable=0;points=[[0,0.5],[1,0.5]];portConstraint=eastwest;whiteSpace=wrap;html=1;" parent="GmqAfNl9Jqc918hLIT2D-2" vertex="1">
          <mxGeometry y="60" width="160" height="71" as="geometry" />
        </mxCell>
        <mxCell id="GmqAfNl9Jqc918hLIT2D-6" value="creature" style="swimlane;fontStyle=1;align=center;verticalAlign=top;childLayout=stackLayout;horizontal=1;startSize=26;horizontalStack=0;resizeParent=1;resizeParentMax=0;resizeLast=0;collapsible=1;marginBottom=0;whiteSpace=wrap;html=1;" parent="1" vertex="1">
          <mxGeometry x="604" y="1035" width="160" height="157" as="geometry">
            <mxRectangle x="80" y="160" width="110" height="30" as="alternateBounds" />
          </mxGeometry>
        </mxCell>
        <mxCell id="GmqAfNl9Jqc918hLIT2D-7" value="id SERIAL" style="text;strokeColor=none;fillColor=none;align=left;verticalAlign=top;spacingLeft=4;spacingRight=4;overflow=hidden;rotatable=0;points=[[0,0.5],[1,0.5]];portConstraint=eastwest;whiteSpace=wrap;html=1;" parent="GmqAfNl9Jqc918hLIT2D-6" vertex="1">
          <mxGeometry y="26" width="160" height="26" as="geometry" />
        </mxCell>
        <mxCell id="GmqAfNl9Jqc918hLIT2D-8" value="" style="line;strokeWidth=1;fillColor=none;align=left;verticalAlign=middle;spacingTop=-1;spacingLeft=3;spacingRight=3;rotatable=0;labelPosition=right;points=[];portConstraint=eastwest;strokeColor=inherit;" parent="GmqAfNl9Jqc918hLIT2D-6" vertex="1">
          <mxGeometry y="52" width="160" height="8" as="geometry" />
        </mxCell>
        <mxCell id="GmqAfNl9Jqc918hLIT2D-9" value="name VARCHAR&lt;br&gt;location INT&lt;br&gt;home INT&lt;br&gt;class INT&lt;br&gt;peticantrop INT&lt;br&gt;status CHAR" style="text;strokeColor=none;fillColor=none;align=left;verticalAlign=top;spacingLeft=4;spacingRight=4;overflow=hidden;rotatable=0;points=[[0,0.5],[1,0.5]];portConstraint=eastwest;whiteSpace=wrap;html=1;" parent="GmqAfNl9Jqc918hLIT2D-6" vertex="1">
          <mxGeometry y="60" width="160" height="97" as="geometry" />
        </mxCell>
        <mxCell id="GmqAfNl9Jqc918hLIT2D-10" value="" style="edgeStyle=orthogonalEdgeStyle;fontSize=12;html=1;endArrow=ERmandOne;startArrow=ERmandOne;rounded=0;entryX=0.511;entryY=1;entryDx=0;entryDy=0;entryPerimeter=0;exitX=0.5;exitY=0;exitDx=0;exitDy=0;" parent="1" source="GmqAfNl9Jqc918hLIT2D-11" target="GmqAfNl9Jqc918hLIT2D-9" edge="1">
          <mxGeometry width="100" height="100" relative="1" as="geometry">
            <mxPoint x="670" y="1337" as="sourcePoint" />
            <mxPoint x="717" y="1154" as="targetPoint" />
          </mxGeometry>
        </mxCell>
        <mxCell id="GmqAfNl9Jqc918hLIT2D-11" value="peticantrop" style="swimlane;fontStyle=1;align=center;verticalAlign=top;childLayout=stackLayout;horizontal=1;startSize=26;horizontalStack=0;resizeParent=1;resizeParentMax=0;resizeLast=0;collapsible=1;marginBottom=0;whiteSpace=wrap;html=1;" parent="1" vertex="1">
          <mxGeometry x="657" y="1254" width="160" height="131" as="geometry">
            <mxRectangle x="80" y="160" width="110" height="30" as="alternateBounds" />
          </mxGeometry>
        </mxCell>
        <mxCell id="GmqAfNl9Jqc918hLIT2D-12" value="id SERIAL" style="text;strokeColor=none;fillColor=none;align=left;verticalAlign=top;spacingLeft=4;spacingRight=4;overflow=hidden;rotatable=0;points=[[0,0.5],[1,0.5]];portConstraint=eastwest;whiteSpace=wrap;html=1;" parent="GmqAfNl9Jqc918hLIT2D-11" vertex="1">
          <mxGeometry y="26" width="160" height="26" as="geometry" />
        </mxCell>
        <mxCell id="GmqAfNl9Jqc918hLIT2D-13" value="" style="line;strokeWidth=1;fillColor=none;align=left;verticalAlign=middle;spacingTop=-1;spacingLeft=3;spacingRight=3;rotatable=0;labelPosition=right;points=[];portConstraint=eastwest;strokeColor=inherit;" parent="GmqAfNl9Jqc918hLIT2D-11" vertex="1">
          <mxGeometry y="52" width="160" height="8" as="geometry" />
        </mxCell>
        <mxCell id="GmqAfNl9Jqc918hLIT2D-14" value="name VARCHAR&lt;br&gt;sex CHAR&lt;br&gt;hunger BOOL&lt;br&gt;thirst BOOL" style="text;strokeColor=none;fillColor=none;align=left;verticalAlign=top;spacingLeft=4;spacingRight=4;overflow=hidden;rotatable=0;points=[[0,0.5],[1,0.5]];portConstraint=eastwest;whiteSpace=wrap;html=1;" parent="GmqAfNl9Jqc918hLIT2D-11" vertex="1">
          <mxGeometry y="60" width="160" height="71" as="geometry" />
        </mxCell>
        <mxCell id="NPJyfYxu5IKuW3XJHxfP-2" value="creature_homes" style="swimlane;fontStyle=1;align=center;verticalAlign=top;childLayout=stackLayout;horizontal=1;startSize=26;horizontalStack=0;resizeParent=1;resizeParentMax=0;resizeLast=0;collapsible=1;marginBottom=0;whiteSpace=wrap;html=1;" vertex="1" parent="1">
          <mxGeometry x="469" y="1229" width="160" height="101" as="geometry">
            <mxRectangle x="80" y="160" width="110" height="30" as="alternateBounds" />
          </mxGeometry>
        </mxCell>
        <mxCell id="NPJyfYxu5IKuW3XJHxfP-3" value="id SERIAL" style="text;strokeColor=none;fillColor=none;align=left;verticalAlign=top;spacingLeft=4;spacingRight=4;overflow=hidden;rotatable=0;points=[[0,0.5],[1,0.5]];portConstraint=eastwest;whiteSpace=wrap;html=1;" vertex="1" parent="NPJyfYxu5IKuW3XJHxfP-2">
          <mxGeometry y="26" width="160" height="26" as="geometry" />
        </mxCell>
        <mxCell id="NPJyfYxu5IKuW3XJHxfP-4" value="" style="line;strokeWidth=1;fillColor=none;align=left;verticalAlign=middle;spacingTop=-1;spacingLeft=3;spacingRight=3;rotatable=0;labelPosition=right;points=[];portConstraint=eastwest;strokeColor=inherit;" vertex="1" parent="NPJyfYxu5IKuW3XJHxfP-2">
          <mxGeometry y="52" width="160" height="8" as="geometry" />
        </mxCell>
        <mxCell id="NPJyfYxu5IKuW3XJHxfP-5" value="home_id INT&lt;br&gt;creature_id INT" style="text;strokeColor=none;fillColor=none;align=left;verticalAlign=top;spacingLeft=4;spacingRight=4;overflow=hidden;rotatable=0;points=[[0,0.5],[1,0.5]];portConstraint=eastwest;whiteSpace=wrap;html=1;" vertex="1" parent="NPJyfYxu5IKuW3XJHxfP-2">
          <mxGeometry y="60" width="160" height="41" as="geometry" />
        </mxCell>
        <mxCell id="NPJyfYxu5IKuW3XJHxfP-6" value="" style="edgeStyle=orthogonalEdgeStyle;fontSize=12;html=1;endArrow=ERzeroToMany;startArrow=ERmandOne;rounded=0;entryX=1;entryY=0.5;entryDx=0;entryDy=0;exitX=0;exitY=0.5;exitDx=0;exitDy=0;" edge="1" parent="1" source="NPJyfYxu5IKuW3XJHxfP-5" target="YlbDnyNl1JNBiLBAhTAw-94">
          <mxGeometry width="100" height="100" relative="1" as="geometry">
            <mxPoint x="404" y="1226" as="sourcePoint" />
            <mxPoint x="459" y="1141" as="targetPoint" />
          </mxGeometry>
        </mxCell>
        <mxCell id="NPJyfYxu5IKuW3XJHxfP-7" value="home" style="swimlane;fontStyle=1;align=center;verticalAlign=top;childLayout=stackLayout;horizontal=1;startSize=26;horizontalStack=0;resizeParent=1;resizeParentMax=0;resizeLast=0;collapsible=1;marginBottom=0;whiteSpace=wrap;html=1;" vertex="1" parent="1">
          <mxGeometry x="229" y="566" width="160" height="98" as="geometry">
            <mxRectangle x="80" y="160" width="110" height="30" as="alternateBounds" />
          </mxGeometry>
        </mxCell>
        <mxCell id="NPJyfYxu5IKuW3XJHxfP-8" value="id SERIAL" style="text;strokeColor=none;fillColor=none;align=left;verticalAlign=top;spacingLeft=4;spacingRight=4;overflow=hidden;rotatable=0;points=[[0,0.5],[1,0.5]];portConstraint=eastwest;whiteSpace=wrap;html=1;" vertex="1" parent="NPJyfYxu5IKuW3XJHxfP-7">
          <mxGeometry y="26" width="160" height="26" as="geometry" />
        </mxCell>
        <mxCell id="NPJyfYxu5IKuW3XJHxfP-9" value="" style="line;strokeWidth=1;fillColor=none;align=left;verticalAlign=middle;spacingTop=-1;spacingLeft=3;spacingRight=3;rotatable=0;labelPosition=right;points=[];portConstraint=eastwest;strokeColor=inherit;" vertex="1" parent="NPJyfYxu5IKuW3XJHxfP-7">
          <mxGeometry y="52" width="160" height="8" as="geometry" />
        </mxCell>
        <mxCell id="NPJyfYxu5IKuW3XJHxfP-10" value="location INT&lt;br&gt;name VARCHAR" style="text;strokeColor=none;fillColor=none;align=left;verticalAlign=top;spacingLeft=4;spacingRight=4;overflow=hidden;rotatable=0;points=[[0,0.5],[1,0.5]];portConstraint=eastwest;whiteSpace=wrap;html=1;" vertex="1" parent="NPJyfYxu5IKuW3XJHxfP-7">
          <mxGeometry y="60" width="160" height="38" as="geometry" />
        </mxCell>
        <mxCell id="NPJyfYxu5IKuW3XJHxfP-11" value="creature_homes" style="swimlane;fontStyle=1;align=center;verticalAlign=top;childLayout=stackLayout;horizontal=1;startSize=26;horizontalStack=0;resizeParent=1;resizeParentMax=0;resizeLast=0;collapsible=1;marginBottom=0;whiteSpace=wrap;html=1;" vertex="1" parent="1">
          <mxGeometry x="474" y="557" width="160" height="101" as="geometry">
            <mxRectangle x="80" y="160" width="110" height="30" as="alternateBounds" />
          </mxGeometry>
        </mxCell>
        <mxCell id="NPJyfYxu5IKuW3XJHxfP-12" value="ИД_ЖИЛИЩА_СОЗДАНИЯ" style="text;strokeColor=none;fillColor=none;align=left;verticalAlign=top;spacingLeft=4;spacingRight=4;overflow=hidden;rotatable=0;points=[[0,0.5],[1,0.5]];portConstraint=eastwest;whiteSpace=wrap;html=1;" vertex="1" parent="NPJyfYxu5IKuW3XJHxfP-11">
          <mxGeometry y="26" width="160" height="26" as="geometry" />
        </mxCell>
        <mxCell id="NPJyfYxu5IKuW3XJHxfP-13" value="" style="line;strokeWidth=1;fillColor=none;align=left;verticalAlign=middle;spacingTop=-1;spacingLeft=3;spacingRight=3;rotatable=0;labelPosition=right;points=[];portConstraint=eastwest;strokeColor=inherit;" vertex="1" parent="NPJyfYxu5IKuW3XJHxfP-11">
          <mxGeometry y="52" width="160" height="8" as="geometry" />
        </mxCell>
        <mxCell id="NPJyfYxu5IKuW3XJHxfP-14" value="ИД_ЖИЛИЩА&lt;br&gt;ИД_СОЗДАНИЯ" style="text;strokeColor=none;fillColor=none;align=left;verticalAlign=top;spacingLeft=4;spacingRight=4;overflow=hidden;rotatable=0;points=[[0,0.5],[1,0.5]];portConstraint=eastwest;whiteSpace=wrap;html=1;" vertex="1" parent="NPJyfYxu5IKuW3XJHxfP-11">
          <mxGeometry y="60" width="160" height="41" as="geometry" />
        </mxCell>
        <mxCell id="NPJyfYxu5IKuW3XJHxfP-15" value="" style="edgeStyle=orthogonalEdgeStyle;fontSize=12;html=1;endArrow=ERzeroToMany;startArrow=ERmandOne;rounded=0;entryX=1;entryY=0.5;entryDx=0;entryDy=0;exitX=0;exitY=0.5;exitDx=0;exitDy=0;" edge="1" parent="1" source="NPJyfYxu5IKuW3XJHxfP-14" target="NPJyfYxu5IKuW3XJHxfP-10">
          <mxGeometry width="100" height="100" relative="1" as="geometry">
            <mxPoint x="409" y="554" as="sourcePoint" />
            <mxPoint x="464" y="469" as="targetPoint" />
          </mxGeometry>
        </mxCell>
      </root>
    </mxGraphModel>
  </diagram>
</mxfile>
